<?xml version="1.0" standalone="no"?>
<!DOCTYPE svg PUBLIC "-//W3C//DTD SVG 20010904//EN"
 "http://www.w3.org/TR/2001/REC-SVG-20010904/DTD/svg10.dtd">
<svg version="1.0" xmlns="http://www.w3.org/2000/svg"
 width="300.000000pt" height="307.000000pt" viewBox="0 0 300.000000 307.000000"
 preserveAspectRatio="xMidYMid meet">
<metadata>
Created by potrace 1.10, written by Peter Selinger 2001-2011
</metadata>
<g transform="translate(0.000000,307.000000) scale(0.100000,-0.100000)"
fill="#000000" stroke="none">
<path d="M770 2525 c-26 -60 -32 -65 -92 -65 -27 0 -48 -4 -48 -8 0 -4 18 -26
40 -47 23 -22 38 -46 36 -55 -3 -8 -8 -34 -11 -58 l-7 -43 52 32 51 31 50 -27
c28 -15 52 -25 54 -23 1 1 -2 27 -8 57 l-12 54 42 37 c24 20 40 40 36 44 -3 3
-28 6 -55 6 l-48 0 -29 58 -29 57 -22 -50z m98 -87 l32 -9 -20 -21 c-21 -23
-23 -28 -24 -68 -1 -17 -6 -24 -16 -21 -40 11 -78 12 -84 2 -14 -21 -26 -11
-26 23 0 18 -9 44 -19 58 l-20 25 38 16 c21 9 43 28 51 41 l13 25 21 -31 c12
-19 34 -35 54 -40z"/>
<path d="M1236 2522 c-24 -57 -30 -62 -83 -62 -23 0 -44 -4 -47 -9 -4 -5 13
-25 35 -45 l42 -35 -11 -53 c-5 -29 -9 -55 -7 -56 2 -2 24 8 50 23 l46 28 50
-28 c28 -15 52 -25 54 -23 1 1 -2 27 -8 57 l-12 54 44 38 c41 37 42 38 19 43
-12 3 -39 7 -58 8 -32 3 -37 8 -59 56 -14 28 -27 52 -30 52 -3 0 -15 -21 -25
-48z m52 -51 c12 -16 34 -32 48 -35 l25 -7 -21 -35 c-15 -23 -20 -43 -16 -59
6 -25 -7 -34 -20 -14 -6 10 -44 9 -84 -2 -11 -3 -16 6 -18 31 -2 19 -13 45
-24 58 -15 15 -17 22 -8 22 20 0 80 43 80 58 0 20 13 14 38 -17z"/>
<path d="M1706 2515 l-25 -55 -49 0 c-27 0 -52 -3 -55 -6 -4 -4 12 -24 36 -44
l42 -37 -12 -54 c-6 -30 -9 -56 -8 -57 2 -2 26 8 54 23 l50 28 46 -28 c26 -15
48 -25 50 -23 2 1 -2 27 -8 57 l-10 55 42 36 c23 20 38 39 35 43 -4 4 -29 7
-56 7 l-49 0 -25 55 c-14 30 -27 55 -29 55 -2 0 -15 -25 -29 -55z m87 -75 c7
0 18 -4 26 -9 11 -7 9 -14 -9 -39 -14 -18 -20 -37 -16 -47 9 -24 -3 -38 -20
-24 -12 10 -44 9 -82 -2 -9 -3 -15 7 -17 28 -1 18 -10 44 -18 57 -16 23 -15
24 14 37 17 6 38 23 46 36 l16 25 24 -31 c14 -17 30 -31 36 -31z"/>
<path d="M2180 2517 l-25 -52 -52 -3 c-29 -2 -53 -7 -53 -11 0 -5 18 -24 41
-43 l41 -35 -11 -53 c-6 -29 -9 -55 -7 -57 2 -3 25 7 50 22 l45 27 51 -28 c27
-15 52 -25 55 -23 2 3 -2 28 -9 57 l-14 52 45 40 c43 37 44 39 21 44 -12 3
-39 7 -58 8 -32 3 -37 8 -59 56 -14 28 -27 52 -30 52 -3 -1 -17 -24 -31 -53z
m88 -73 c9 -3 23 -8 31 -10 10 -3 10 -9 -4 -31 -10 -14 -18 -40 -19 -57 -2
-22 -7 -30 -17 -27 -22 7 -72 6 -91 -3 -14 -6 -17 -2 -16 23 1 16 -7 42 -16
56 -18 27 -14 45 9 45 7 0 26 15 42 33 l28 33 18 -28 c9 -16 25 -31 35 -34z"/>
<path d="M1264 2170 c-32 -13 -62 -60 -66 -105 l-3 -40 48 -3 c41 -3 47 -1 47
16 0 39 20 43 216 40 l189 -3 3 -27 c3 -26 6 -28 54 -28 l51 0 -6 47 c-4 38
-12 54 -41 80 l-36 33 -217 -1 c-120 0 -228 -4 -239 -9z m207 -35 c5 -4 9 -3
9 2 0 4 50 7 111 6 119 -2 159 -15 159 -53 0 -26 -6 -25 -42 5 -32 27 -32 27
-252 25 -126 -1 -162 -8 -179 -36 -11 -19 -37 -18 -37 1 0 22 35 49 73 56 37
6 144 2 158 -6z"/>
<path d="M898 1974 c-46 -24 -58 -61 -58 -174 0 -104 7 -133 38 -149 10 -5
110 -30 223 -54 297 -66 268 -61 262 -39 -2 11 0 29 6 41 11 20 20 21 132 21
118 0 120 0 129 -25 5 -14 7 -32 3 -41 -5 -14 -2 -16 20 -10 15 3 122 27 239
52 117 25 223 52 236 60 12 8 22 24 22 37 3 134 -1 230 -10 246 -27 51 -27 51
-642 51 -487 -1 -577 -3 -600 -16z m1197 -46 c22 -25 24 -37 23 -129 0 -77 -3
-102 -14 -106 -8 -3 -14 -10 -14 -17 0 -9 -60 -25 -195 -50 -11 -3 -35 -9 -54
-15 -19 -6 -38 -8 -43 -5 -5 3 -15 0 -23 -6 -8 -7 -15 -9 -15 -5 0 4 -6 2 -13
-4 -8 -6 -17 -8 -20 -4 -4 3 -13 1 -21 -6 -11 -9 -15 -8 -19 4 -4 8 -13 12
-22 9 -8 -3 -15 -1 -15 6 0 32 -34 45 -124 48 -124 4 -152 -2 -173 -38 -9 -16
-21 -26 -26 -23 -5 3 -13 -1 -18 -8 -6 -10 -11 -11 -16 -3 -5 6 -28 14 -53 17
-48 6 -80 12 -112 23 -11 3 -30 8 -41 9 -12 2 -57 13 -99 23 -43 11 -80 17
-83 13 -3 -3 -3 2 0 11 4 9 0 18 -9 21 -13 5 -16 25 -16 110 0 116 8 133 72
147 18 4 278 6 576 6 l544 -1 23 -27z"/>
<path d="M847 1384 c2 -146 7 -253 13 -265 28 -52 15 -50 637 -52 542 -2 580
-1 605 16 14 10 30 26 35 35 8 17 22 512 14 512 -3 0 -12 -7 -21 -15 -9 -8
-125 -38 -256 -67 l-240 -51 -1 -36 c-2 -52 -21 -61 -135 -61 -110 0 -138 14
-138 68 0 28 -1 29 -107 51 -264 56 -367 82 -383 96 -9 8 -18 15 -21 15 -2 0
-3 -110 -2 -246z m71 187 c9 -5 58 -17 107 -26 50 -9 95 -18 100 -20 6 -1 15
-4 20 -5 33 -10 85 -21 114 -26 39 -5 91 -39 91 -59 0 -8 10 -24 23 -35 20
-20 31 -21 133 -18 118 3 144 14 144 57 0 11 9 22 20 26 11 3 20 11 20 17 0 5
7 8 15 5 8 -4 17 -2 21 4 3 6 13 8 21 5 9 -4 21 -2 27 2 6 5 27 12 46 15 19 4
65 13 101 21 36 8 82 17 103 20 21 3 46 11 56 16 25 14 30 13 24 -5 -4 -8 -1
-15 6 -15 8 0 10 -53 8 -201 l-3 -201 -30 -24 -29 -23 -558 0 -557 -1 -28 24
-28 24 -3 198 c-3 177 -1 199 14 207 13 8 14 11 3 18 -19 12 -3 11 19 0z"/>
<path d="M1410 1513 l0 -63 90 0 90 0 0 63 0 62 -90 0 -90 0 0 -62z m153 23
c2 10 5 2 6 -19 0 -21 -3 -36 -8 -32 -5 3 -16 -1 -24 -9 -11 -11 -17 -12 -26
-3 -9 9 -14 8 -21 -3 -7 -10 -10 -11 -10 -2 0 6 -9 12 -19 12 -23 0 -34 25
-21 50 7 12 19 17 40 16 17 -1 34 2 37 7 3 5 14 -1 23 -13 17 -22 18 -23 23
-4z"/>
<path d="M514 910 c-113 -56 -139 -224 -49 -314 43 -43 119 -63 191 -50 l49 9
3 44 c3 43 3 43 -20 27 -14 -10 -43 -16 -76 -16 -46 0 -58 4 -82 28 -36 36
-46 88 -29 143 19 58 56 83 120 82 28 0 56 -6 62 -12 20 -20 27 -12 27 28 0
35 -3 39 -31 45 -59 12 -124 6 -165 -14z"/>
<path d="M1580 740 l0 -190 35 0 35 0 0 75 c0 73 1 75 24 75 20 0 33 -14 68
-75 43 -75 43 -75 86 -75 32 0 41 3 36 13 -5 6 -28 41 -51 76 l-44 64 32 26
c26 22 32 36 36 77 9 89 -43 123 -189 124 l-68 0 0 -190z m178 108 c18 -16 15
-55 -8 -78 -13 -13 -33 -20 -60 -20 l-40 0 0 58 0 57 48 -4 c26 -2 53 -8 60
-13z"/>
<path d="M2208 903 c-13 -3 -18 -15 -18 -39 0 -27 -4 -34 -20 -34 -15 0 -20
-7 -20 -25 0 -18 5 -25 20 -25 19 0 20 -7 20 -95 0 -117 12 -135 90 -135 49 0
50 1 50 30 0 27 -3 30 -30 30 -39 0 -50 23 -50 104 l0 66 45 0 c41 0 45 2 45
25 0 23 -4 25 -46 25 l-46 0 7 40 c7 42 2 46 -47 33z"/>
<path d="M785 797 c-101 -101 -16 -278 122 -252 75 14 115 64 116 144 1 93
-49 141 -149 141 -50 0 -59 -3 -89 -33z m145 -37 c15 -15 20 -33 20 -70 0 -37
-5 -55 -20 -70 -58 -58 -139 18 -110 105 18 56 72 73 110 35z"/>
<path d="M1065 690 l0 -140 33 0 32 0 0 69 c0 107 23 151 79 151 17 0 21 6 21
30 0 26 -4 30 -28 30 -16 0 -37 -9 -47 -20 -10 -11 -22 -20 -27 -20 -4 0 -8 9
-8 20 0 15 -7 20 -27 20 l-28 0 0 -140z"/>
<path d="M1260 640 l0 -190 41 0 42 0 -6 60 c-3 33 -4 60 -3 60 2 0 18 -7 36
-16 65 -33 151 21 165 105 9 51 -10 118 -42 147 -31 29 -106 33 -141 8 -20
-14 -22 -14 -22 0 0 12 -10 16 -35 16 l-35 0 0 -190z m180 120 c29 -29 28
-106 -2 -137 -24 -26 -55 -30 -82 -10 -26 19 -26 135 0 154 26 19 61 16 84 -7z"/>
<path d="M1917 823 c-4 -3 -7 -20 -7 -36 0 -24 3 -28 18 -22 46 19 90 17 111
-4 32 -32 26 -41 -30 -41 -79 0 -118 -29 -119 -88 0 -47 14 -69 55 -82 31 -10
41 -9 75 9 33 17 40 18 40 6 0 -10 10 -15 31 -15 l31 0 -4 116 c-3 113 -4 116
-31 140 -24 20 -39 24 -96 24 -37 0 -71 -3 -74 -7z m143 -168 c0 -52 -91 -76
-98 -26 -5 31 21 51 65 51 28 0 33 -3 33 -25z"/>
<path d="M2391 800 c-57 -58 -56 -164 3 -217 32 -29 42 -33 93 -33 87 0 103 7
103 42 0 25 -3 29 -17 23 -10 -4 -38 -10 -63 -12 -36 -4 -49 -1 -67 17 -13 11
-23 28 -23 38 0 15 10 17 91 14 l92 -3 -5 52 c-5 43 -11 58 -37 81 -26 23 -40
28 -85 28 -47 0 -58 -4 -85 -30z m132 -42 c27 -32 21 -38 -43 -38 -67 0 -77
13 -39 51 23 23 54 19 82 -13z"/>
</g>
</svg>
