<svg id="svg" version="1.1" xmlns="http://www.w3.org/2000/svg" xmlns:xlink="http://www.w3.org/1999/xlink" width="400" height="408.9795918367347" viewBox="0, 0, 400,408.9795918367347"><g id="svgg"><path id="path0" d="M171.800 118.962 C 164.273 121.117,160.083 126.615,159.693 134.852 L 159.487 139.200 165.743 139.200 L 172.000 139.200 172.000 137.461 C 172.000 135.287,172.879 133.486,174.569 132.197 L 175.876 131.200 199.776 131.200 C 223.337 131.200,223.693 131.212,224.844 132.032 C 226.458 133.181,227.200 134.802,227.200 137.180 L 227.200 139.200 233.457 139.200 L 239.713 139.200 239.508 134.864 C 239.109 126.451,234.239 120.467,226.469 118.845 C 223.473 118.219,174.025 118.326,171.800 118.962 M123.800 144.379 C 120.126 145.296,115.381 148.906,114.046 151.800 C 113.742 152.460,113.292 153.432,113.046 153.960 C 112.745 154.610,112.600 159.466,112.600 168.960 L 112.600 183.000 113.662 184.800 C 115.231 187.460,117.575 189.324,120.400 190.159 C 123.191 190.983,124.346 191.292,125.900 191.630 C 126.835 191.834,128.455 192.190,129.500 192.422 C 130.545 192.654,132.030 192.936,132.800 193.047 C 133.570 193.158,134.560 193.406,135.000 193.598 C 135.440 193.789,136.340 194.040,137.000 194.155 C 137.660 194.270,139.100 194.561,140.200 194.800 C 143.024 195.416,145.569 195.930,147.200 196.212 C 147.970 196.345,148.960 196.608,149.400 196.795 C 149.840 196.983,150.920 197.256,151.800 197.403 C 153.814 197.739,155.619 198.113,160.400 199.186 C 162.490 199.655,164.920 200.189,165.800 200.373 C 166.680 200.557,170.190 201.290,173.600 202.002 C 177.010 202.714,180.186 203.443,180.659 203.623 C 181.911 204.098,182.000 203.841,182.000 199.747 L 182.000 196.027 183.413 194.613 L 184.827 193.200 199.913 193.200 C 218.404 193.201,218.000 193.045,218.000 200.174 C 218.000 202.058,218.074 203.600,218.165 203.600 C 218.255 203.600,220.280 203.138,222.665 202.573 C 225.049 202.008,227.900 201.360,229.000 201.133 C 230.100 200.905,231.720 200.556,232.600 200.357 C 233.480 200.158,235.100 199.808,236.200 199.580 C 237.300 199.352,239.010 198.985,240.000 198.764 C 240.990 198.544,242.610 198.200,243.600 198.000 C 244.590 197.800,246.210 197.456,247.200 197.236 C 248.190 197.015,249.990 196.631,251.200 196.382 C 253.788 195.850,256.110 195.353,258.600 194.800 C 262.696 193.890,264.291 193.545,266.000 193.200 C 266.990 193.000,268.610 192.658,269.600 192.440 C 270.590 192.222,271.940 191.935,272.600 191.803 C 273.260 191.670,274.475 191.391,275.300 191.181 C 287.049 188.197,287.200 187.917,287.200 169.117 C 287.200 160.320,287.047 155.376,286.745 154.428 C 285.402 150.208,282.991 147.338,279.233 145.488 L 276.617 144.200 200.808 144.139 C 159.114 144.106,124.460 144.214,123.800 144.379 M284.625 193.413 C 283.539 194.396,282.334 195.200,281.949 195.200 C 281.563 195.200,281.149 195.359,281.029 195.554 C 280.908 195.749,280.313 196.007,279.705 196.129 C 279.097 196.251,277.790 196.553,276.800 196.800 C 274.900 197.275,272.328 197.809,270.000 198.212 C 269.230 198.345,268.240 198.611,267.800 198.802 C 267.360 198.994,266.370 199.242,265.600 199.353 C 264.830 199.464,263.345 199.746,262.300 199.978 C 261.255 200.210,259.590 200.580,258.600 200.800 C 257.610 201.020,256.035 201.360,255.100 201.556 C 254.165 201.752,252.410 202.132,251.200 202.400 C 249.990 202.668,248.280 203.033,247.400 203.210 C 246.520 203.388,244.090 203.917,242.000 204.385 C 239.910 204.854,237.390 205.403,236.400 205.604 C 235.410 205.806,233.340 206.255,231.800 206.602 C 230.260 206.949,226.525 207.720,223.500 208.315 L 218.000 209.397 217.994 212.798 C 217.986 217.583,217.169 219.717,214.800 221.150 C 213.089 222.185,187.251 222.494,185.517 221.500 C 184.197 220.744,182.800 219.303,182.800 218.698 C 182.800 218.402,182.627 217.987,182.416 217.776 C 182.205 217.565,181.980 215.684,181.916 213.596 L 181.800 209.800 179.400 209.299 C 176.528 208.698,172.946 207.917,167.000 206.594 C 165.460 206.251,162.490 205.598,160.400 205.143 C 158.310 204.688,155.970 204.173,155.200 203.997 C 152.273 203.331,149.730 202.782,147.800 202.399 C 146.700 202.181,144.990 201.812,144.000 201.579 C 140.858 200.841,135.692 199.703,133.200 199.200 C 131.480 198.853,129.907 198.513,125.700 197.578 C 124.655 197.346,123.213 197.056,122.496 196.934 C 121.779 196.812,121.094 196.551,120.973 196.356 C 120.852 196.160,120.409 196.000,119.989 196.000 C 119.152 196.000,117.145 194.951,114.497 193.129 L 112.790 191.955 112.916 223.277 C 112.985 240.505,113.181 255.140,113.352 255.800 C 113.855 257.747,115.178 260.188,116.534 261.673 C 118.470 263.792,120.267 264.962,123.719 266.350 C 125.954 267.249,273.787 266.961,276.540 266.053 C 280.230 264.836,283.766 261.912,285.169 258.919 C 285.457 258.303,285.897 257.440,286.147 257.000 C 286.463 256.441,286.630 250.345,286.701 236.800 C 286.756 226.130,286.846 211.595,286.901 204.500 C 286.955 197.405,286.910 191.606,286.800 191.613 C 286.690 191.621,285.711 192.431,284.625 193.413 M188.000 207.600 L 188.000 216.000 200.000 216.000 L 212.000 216.000 212.000 207.600 L 212.000 199.200 200.000 199.200 L 188.000 199.200 188.000 207.600 M77.000 285.248 C 76.120 285.449,74.500 285.810,73.400 286.050 C 68.297 287.162,60.619 292.574,59.166 296.082 C 58.911 296.697,58.545 297.200,58.351 297.200 C 58.158 297.200,58.000 297.442,58.000 297.739 C 58.000 298.035,57.706 298.866,57.347 299.585 C 56.554 301.176,56.037 303.084,55.611 306.000 C 55.434 307.210,55.162 308.685,55.006 309.279 C 54.314 311.922,55.808 319.430,57.855 323.600 C 60.229 328.434,66.931 334.400,69.989 334.400 C 70.409 334.400,70.852 334.560,70.973 334.756 C 71.806 336.104,91.793 336.106,92.626 334.758 C 92.748 334.561,93.197 334.400,93.624 334.400 C 94.351 334.400,94.400 334.082,94.400 329.367 L 94.400 324.335 93.044 325.173 C 83.833 330.866,71.436 328.413,67.364 320.091 C 66.012 317.326,65.086 311.661,65.614 309.382 C 65.816 308.512,65.985 307.136,65.990 306.324 C 65.996 305.512,66.180 304.736,66.400 304.600 C 66.620 304.464,66.800 304.091,66.800 303.772 C 66.800 302.543,68.602 299.446,70.379 297.622 C 72.082 295.873,72.882 295.376,76.119 294.056 C 77.570 293.464,86.512 293.463,88.372 294.054 C 89.157 294.304,90.835 295.011,92.100 295.625 L 94.400 296.742 94.400 292.020 L 94.400 287.297 93.300 286.887 C 88.925 285.255,80.623 284.420,77.000 285.248 M210.786 285.900 C 210.779 286.065,210.776 291.960,210.780 299.000 C 210.784 306.040,210.790 317.065,210.793 323.500 L 210.800 335.200 215.200 335.200 L 219.600 335.200 219.600 325.400 L 219.600 315.600 223.171 315.600 C 226.665 315.600,226.753 315.624,227.297 316.700 C 228.037 318.165,228.953 319.753,229.200 320.000 C 229.394 320.194,229.582 320.514,231.284 323.555 C 231.730 324.350,232.433 325.478,232.847 326.062 C 233.261 326.646,233.600 327.212,233.600 327.321 C 233.600 327.567,236.639 332.614,237.682 334.100 L 238.454 335.200 243.627 335.200 C 246.472 335.200,248.800 335.120,248.800 335.023 C 248.800 334.925,246.035 330.650,242.656 325.523 C 234.902 313.757,235.331 314.594,236.701 313.902 C 239.016 312.733,239.847 312.152,241.279 310.706 C 242.642 309.327,243.079 308.583,244.344 305.481 C 244.595 304.866,244.800 302.372,244.800 299.938 C 244.800 291.166,241.200 287.210,232.173 286.061 C 228.177 285.553,210.808 285.422,210.786 285.900 M294.100 288.878 L 292.000 289.261 292.000 293.582 C 292.000 298.479,291.780 298.908,289.320 298.793 C 288.484 298.754,287.620 298.740,287.400 298.761 C 287.074 298.792,286.997 300.847,287.185 304.500 C 287.193 304.665,288.055 304.803,289.100 304.806 C 292.067 304.816,291.909 304.160,292.088 317.201 C 292.259 329.634,292.378 330.475,294.273 332.655 C 296.752 335.507,302.351 336.653,307.800 335.422 C 308.460 335.273,309.405 335.069,309.900 334.968 C 310.757 334.793,310.800 334.604,310.800 330.992 C 310.800 327.198,310.488 326.472,309.347 327.613 C 308.432 328.528,303.343 328.273,302.263 327.259 C 300.493 325.597,300.379 324.776,300.493 314.599 L 300.600 305.000 305.700 304.888 L 310.800 304.776 310.801 301.688 L 310.802 298.600 306.536 298.727 C 299.961 298.923,300.400 299.305,300.400 293.392 L 300.400 288.400 298.300 288.448 C 297.145 288.474,295.255 288.667,294.100 288.878 M232.490 294.100 C 234.811 295.420,236.000 297.677,236.000 300.763 C 236.000 306.956,232.986 308.940,224.233 308.509 L 219.600 308.281 219.600 300.941 L 219.600 293.600 225.605 293.600 C 229.674 293.600,231.894 293.761,232.490 294.100 M111.800 298.478 C 111.140 298.707,110.287 299.053,109.905 299.247 C 109.523 299.441,108.938 299.600,108.605 299.600 C 108.272 299.600,108.000 299.780,108.000 300.000 C 108.000 300.220,107.749 300.400,107.443 300.400 C 104.572 300.400,100.216 307.495,99.163 313.889 C 97.660 323.005,104.328 335.200,110.814 335.200 C 111.220 335.200,111.664 335.380,111.800 335.600 C 112.143 336.156,121.800 336.110,123.572 335.544 C 128.876 333.850,132.273 331.070,134.255 326.800 C 139.044 316.481,135.734 303.951,127.144 299.888 C 123.646 298.233,114.842 297.424,111.800 298.478 M159.000 298.400 C 158.864 298.620,158.349 298.800,157.855 298.800 C 156.718 298.800,153.351 300.918,151.966 302.505 C 150.676 303.982,150.000 303.674,150.000 301.609 C 150.000 298.861,149.912 298.800,145.957 298.800 L 142.400 298.800 142.400 317.000 L 142.400 335.200 146.586 335.200 L 150.772 335.200 150.934 325.700 C 151.094 316.323,151.348 313.403,152.044 312.973 C 152.240 312.852,152.400 312.481,152.400 312.148 C 152.400 309.351,157.195 305.890,161.144 305.836 L 163.800 305.800 163.919 302.805 C 164.103 298.204,163.997 298.000,161.416 298.000 C 160.223 298.000,159.136 298.180,159.000 298.400 M168.897 323.486 L 169.000 349.000 173.400 349.000 L 177.800 349.000 177.878 341.056 C 177.958 332.888,178.021 332.393,178.890 333.100 C 179.984 333.989,182.462 335.200,183.189 335.200 C 183.609 335.200,184.064 335.380,184.200 335.600 C 184.538 336.147,191.296 336.107,192.681 335.549 C 198.749 333.106,201.058 330.711,203.621 324.200 C 204.898 320.957,204.898 312.235,203.620 309.000 C 201.340 303.223,197.174 298.800,194.013 298.800 C 193.592 298.800,193.136 298.620,193.000 298.400 C 192.864 298.180,191.154 298.000,189.200 298.000 C 187.246 298.000,185.536 298.180,185.400 298.400 C 185.264 298.620,184.724 298.800,184.200 298.800 C 183.676 298.800,183.136 298.980,183.000 299.200 C 182.864 299.420,182.403 299.600,181.976 299.600 C 181.549 299.600,181.200 299.759,181.200 299.953 C 181.200 300.148,180.885 300.411,180.500 300.539 C 180.115 300.666,179.308 301.170,178.707 301.659 C 177.351 302.759,177.102 302.528,177.045 300.112 L 177.000 298.200 172.897 298.086 L 168.794 297.972 168.897 323.486 M260.600 298.400 C 260.160 298.589,259.273 298.756,258.628 298.772 C 257.984 298.787,256.859 299.016,256.128 299.280 L 254.800 299.761 254.800 303.480 C 254.800 305.526,254.845 307.199,254.900 307.197 C 254.955 307.196,256.349 306.737,257.998 306.177 C 265.406 303.663,273.600 305.368,273.600 309.423 C 273.600 309.934,273.780 310.464,274.000 310.600 C 274.624 310.986,274.470 312.288,273.767 312.557 C 273.419 312.691,271.082 312.800,268.573 312.800 C 261.741 312.800,257.883 313.978,254.992 316.948 C 252.856 319.143,252.410 320.152,251.722 324.345 C 251.030 328.568,255.378 335.200,258.838 335.200 C 259.231 335.200,259.664 335.380,259.800 335.600 C 259.936 335.820,261.556 336.000,263.400 336.000 C 265.244 336.000,266.864 335.820,267.000 335.600 C 267.136 335.380,267.687 335.200,268.224 335.200 C 268.761 335.200,269.200 335.050,269.200 334.868 C 269.200 334.685,269.695 334.280,270.300 333.968 C 270.905 333.655,271.930 332.916,272.579 332.325 C 274.056 330.979,274.400 331.186,274.400 333.424 L 274.400 335.200 278.665 335.200 L 282.929 335.200 282.660 322.316 C 282.391 309.442,282.282 308.450,280.734 304.896 C 279.526 302.122,275.618 298.800,273.562 298.800 C 273.169 298.800,272.736 298.620,272.600 298.400 C 272.297 297.909,261.742 297.909,260.600 298.400 M325.200 298.390 C 324.870 298.579,323.969 299.006,323.199 299.339 C 319.053 301.129,315.815 305.084,313.978 310.600 C 313.300 312.636,313.271 322.231,313.940 322.900 C 314.193 323.153,314.400 323.675,314.400 324.060 C 314.400 327.286,319.736 332.704,325.000 334.823 C 328.027 336.042,339.680 335.997,340.980 334.761 C 341.189 334.563,341.828 334.400,342.400 334.400 C 342.972 334.400,343.656 334.184,343.920 333.920 C 344.427 333.413,344.622 326.800,344.130 326.800 C 343.982 326.800,342.497 327.280,340.830 327.867 C 333.187 330.558,325.879 329.076,323.738 324.400 C 322.730 322.196,322.341 320.831,322.467 319.938 L 322.600 319.000 334.266 318.894 L 345.932 318.788 346.200 317.198 C 346.494 315.462,346.132 309.880,345.644 308.600 C 343.700 303.506,339.062 298.800,335.986 298.800 C 335.580 298.800,335.136 298.620,335.000 298.400 C 334.698 297.911,326.052 297.903,325.200 298.390 M332.488 304.418 C 335.545 305.267,338.175 308.908,337.922 311.942 L 337.800 313.400 331.000 313.514 C 321.769 313.669,321.632 313.610,322.906 310.000 C 324.643 305.077,327.942 303.155,332.488 304.418 M121.292 305.460 C 129.918 308.793,129.466 325.990,120.683 328.598 C 111.404 331.353,105.175 320.465,109.871 309.699 C 111.627 305.674,116.839 303.739,121.292 305.460 M190.646 306.247 C 191.653 306.881,192.774 307.940,193.138 308.600 C 193.502 309.260,193.935 309.860,194.100 309.933 C 194.265 310.007,194.400 310.491,194.400 311.010 C 194.400 311.528,194.580 312.064,194.800 312.200 C 195.349 312.539,195.308 320.093,194.750 321.481 C 193.330 325.013,192.252 326.381,189.714 327.870 C 186.793 329.584,182.300 329.086,179.443 326.731 L 178.000 325.542 178.000 316.871 L 178.000 308.200 179.406 307.078 C 182.771 304.393,187.184 304.067,190.646 306.247 M274.315 321.678 C 274.418 324.789,274.348 325.200,273.646 325.575 C 273.215 325.806,272.623 326.228,272.331 326.514 C 271.609 327.219,268.210 328.778,266.763 329.067 C 261.016 330.217,258.417 321.812,263.779 319.417 C 266.366 318.262,267.511 318.051,270.800 318.124 L 274.200 318.200 274.315 321.678 " stroke="none" fill="#05395b" fill-rule="evenodd"></path><path id="path1" d="M0.000 204.400 L 0.000 408.800 200.000 408.800 L 400.000 408.800 400.000 204.400 L 400.000 0.000 200.000 0.000 L 0.000 0.000 0.000 204.400 M108.934 72.067 C 110.108 74.560,111.365 77.250,111.727 78.045 C 112.872 80.558,112.402 80.416,123.354 81.573 C 128.616 82.128,128.622 82.089,122.313 88.139 L 116.827 93.400 117.197 95.000 C 117.401 95.880,117.772 97.680,118.022 99.000 C 119.000 104.158,119.269 105.441,119.602 106.523 C 120.142 108.277,119.253 108.241,115.747 106.366 C 114.016 105.440,111.073 103.888,109.207 102.917 L 105.814 101.151 104.207 102.027 C 103.323 102.509,101.430 103.531,100.000 104.298 C 95.594 106.662,93.821 107.666,93.283 108.105 C 91.860 109.264,92.226 103.466,94.181 93.904 C 94.277 93.435,92.645 91.628,89.161 88.348 C 82.687 82.252,82.677 82.195,87.907 81.582 C 89.608 81.383,92.485 81.048,94.299 80.837 C 98.981 80.294,99.110 80.225,100.263 77.666 C 100.825 76.420,101.608 74.680,102.003 73.800 C 106.150 64.563,105.479 64.731,108.934 72.067 M170.570 70.500 C 175.656 81.496,174.624 80.261,179.200 80.829 C 180.850 81.034,183.640 81.368,185.400 81.570 C 191.243 82.243,191.272 81.937,184.776 88.069 C 179.685 92.875,179.558 93.036,179.777 94.400 C 180.112 96.488,180.747 99.943,181.210 102.200 C 182.416 108.076,182.230 108.747,179.800 107.266 C 178.243 106.317,174.904 104.466,171.439 102.632 L 168.678 101.170 166.439 102.324 C 165.208 102.959,162.258 104.495,159.884 105.739 C 157.510 106.983,155.485 108.000,155.384 108.000 C 155.070 108.000,155.182 105.239,155.567 103.477 C 155.769 102.555,156.118 100.810,156.342 99.600 C 156.566 98.390,156.933 96.500,157.157 95.400 L 157.566 93.400 155.057 91.000 C 153.677 89.680,151.239 87.374,149.640 85.876 C 146.239 82.688,146.217 82.157,149.475 81.832 C 150.754 81.704,152.801 81.419,154.024 81.200 C 155.247 80.980,156.777 80.799,157.424 80.798 C 159.963 80.793,161.481 80.061,162.205 78.493 C 162.584 77.672,163.394 75.920,164.005 74.600 C 165.685 70.973,166.777 68.513,167.200 67.401 C 167.877 65.618,168.633 66.313,170.570 70.500 M233.054 69.500 C 236.090 76.096,238.051 79.985,238.474 80.245 C 238.888 80.502,240.567 80.731,248.200 81.576 C 251.536 81.945,252.800 82.278,252.800 82.787 C 252.800 83.110,246.398 89.441,243.858 91.629 C 242.072 93.167,242.055 92.134,244.031 102.000 C 244.608 104.881,244.934 108.000,244.657 108.000 C 244.517 108.000,243.007 107.256,241.301 106.346 C 239.596 105.437,236.688 103.888,234.839 102.904 L 231.479 101.116 229.839 102.000 C 217.795 108.497,217.407 108.615,218.035 105.600 C 218.241 104.610,218.587 102.810,218.804 101.600 C 219.724 96.478,219.942 95.342,220.211 94.284 C 220.517 93.079,220.189 92.702,212.900 85.890 C 208.997 82.242,209.041 82.062,213.967 81.562 C 225.312 80.410,224.493 80.730,226.183 76.800 C 226.798 75.370,227.751 73.210,228.300 72.000 C 228.848 70.790,229.629 69.035,230.035 68.100 C 231.048 65.764,231.412 65.932,233.054 69.500 M296.933 70.100 C 297.911 72.135,299.361 75.177,300.155 76.861 C 301.715 80.167,302.576 80.800,305.514 80.800 C 308.074 80.800,316.800 82.362,316.800 82.820 C 316.800 82.991,314.433 85.390,311.541 88.152 L 306.281 93.172 307.578 100.201 C 309.233 109.176,309.357 108.928,304.508 106.341 C 302.358 105.194,299.340 103.595,297.800 102.788 L 295.000 101.320 289.600 104.118 C 286.630 105.657,283.686 107.275,283.059 107.715 C 281.608 108.730,281.187 108.173,281.666 105.872 C 282.066 103.945,282.639 100.915,283.171 97.900 C 283.375 96.745,283.659 95.256,283.803 94.591 C 284.062 93.391,280.558 89.475,274.400 84.080 C 272.526 82.438,272.958 82.124,277.804 81.602 C 289.218 80.372,287.036 82.098,292.847 69.700 C 294.768 65.600,294.769 65.600,296.933 70.100 M227.572 118.461 C 235.864 121.141,240.125 127.001,240.178 135.800 L 240.200 139.400 233.500 139.510 L 226.800 139.619 226.800 137.433 C 226.800 136.231,226.620 135.136,226.400 135.000 C 226.180 134.864,226.000 134.481,226.000 134.148 C 226.000 133.360,225.027 132.400,224.229 132.400 C 223.883 132.400,223.600 132.220,223.600 132.000 C 223.600 131.738,215.446 131.600,199.938 131.600 L 176.276 131.600 174.933 132.624 C 173.358 133.826,172.400 135.877,172.400 138.049 L 172.400 139.600 165.808 139.600 L 159.215 139.600 158.953 138.556 C 157.088 131.123,162.755 121.513,170.700 118.636 C 172.723 117.904,225.345 117.742,227.572 118.461 M278.876 144.668 C 280.376 145.379,282.414 146.789,283.514 147.877 C 285.314 149.658,285.820 150.473,287.144 153.719 C 287.743 155.189,287.788 183.252,287.192 183.848 C 286.474 184.566,286.323 190.685,287.016 190.951 C 287.669 191.201,287.700 253.278,287.048 255.800 C 286.003 259.844,282.885 263.628,278.952 265.625 L 276.242 267.000 200.483 267.103 C 117.861 267.216,123.336 267.358,119.585 264.991 C 116.321 262.930,114.148 260.018,112.856 255.972 C 112.531 254.952,112.400 245.532,112.400 223.072 L 112.400 191.600 113.258 191.600 C 114.269 191.600,114.139 187.522,113.051 185.090 C 111.971 182.679,111.857 181.406,111.703 170.000 C 111.531 157.314,111.711 155.659,113.731 151.282 C 114.964 148.610,119.364 145.173,123.072 143.985 C 125.314 143.266,128.196 143.242,200.800 143.319 L 276.200 143.400 278.876 144.668 M87.800 284.992 C 89.560 285.310,91.810 285.809,92.800 286.102 L 94.600 286.634 94.712 291.917 C 94.819 296.995,94.792 297.200,94.012 297.200 C 93.565 297.200,93.200 297.064,93.200 296.898 C 93.200 296.627,92.701 296.380,89.800 295.211 C 86.851 294.022,77.596 293.436,77.000 294.400 C 76.864 294.620,76.409 294.800,75.989 294.800 C 74.153 294.800,69.587 298.485,68.554 300.800 C 68.131 301.746,67.926 302.242,66.850 304.919 C 66.309 306.264,66.241 316.510,66.766 317.505 C 66.968 317.887,67.439 318.902,67.814 319.760 C 71.272 327.684,84.346 330.242,92.798 324.649 C 94.801 323.323,94.800 323.322,94.797 329.367 L 94.794 334.600 93.717 335.100 C 93.125 335.375,92.147 335.600,91.544 335.600 C 90.941 335.600,90.349 335.758,90.230 335.952 C 90.028 336.278,81.341 337.075,80.000 336.890 C 79.670 336.844,78.050 336.638,76.400 336.431 C 70.699 335.716,68.906 335.085,64.747 332.328 C 60.876 329.761,56.000 323.251,56.000 320.649 C 56.000 320.318,55.839 319.948,55.642 319.826 C 54.152 318.905,54.167 308.327,55.667 302.600 C 59.059 289.645,72.567 282.244,87.800 284.992 M234.512 285.789 C 239.458 286.837,242.485 289.085,244.472 293.188 C 245.486 295.281,245.808 303.826,244.940 305.639 C 244.688 306.168,244.262 307.182,243.994 307.894 C 243.104 310.262,239.207 313.705,236.551 314.471 C 236.305 314.542,239.127 319.184,242.822 324.786 C 246.518 330.388,249.454 335.113,249.347 335.286 C 249.240 335.459,246.598 335.599,243.476 335.597 L 237.800 335.594 236.800 333.915 C 236.250 332.991,235.301 331.417,234.691 330.418 C 234.081 329.418,233.464 328.330,233.320 328.000 C 233.176 327.670,232.955 327.310,232.829 327.200 C 232.443 326.863,231.164 324.642,230.929 323.900 C 230.807 323.515,230.548 323.200,230.353 323.200 C 230.159 323.200,230.000 322.840,230.000 322.400 C 230.000 321.960,229.848 321.600,229.663 321.600 C 229.477 321.600,228.895 320.745,228.368 319.700 C 227.842 318.655,227.305 317.710,227.176 317.600 C 227.047 317.490,226.825 317.085,226.683 316.700 C 226.467 316.113,225.907 316.000,223.213 316.000 L 220.000 316.000 220.000 325.800 L 220.000 335.600 215.300 335.594 C 212.715 335.591,210.420 335.456,210.200 335.294 C 209.554 334.819,209.353 286.580,209.994 285.807 C 210.707 284.948,230.473 284.933,234.512 285.789 M300.856 288.000 C 301.096 288.000,301.199 289.860,301.124 292.806 C 300.978 298.485,300.582 298.107,306.535 297.959 C 311.734 297.830,311.600 297.729,311.600 301.781 C 311.600 305.794,311.800 305.657,306.014 305.597 C 303.696 305.573,301.594 305.564,301.342 305.577 C 300.713 305.609,300.607 321.062,301.217 323.903 C 301.862 326.914,303.040 327.751,306.200 327.444 C 307.520 327.316,309.140 327.164,309.800 327.106 L 311.000 327.000 311.000 331.200 L 311.000 335.400 309.200 335.742 C 306.188 336.315,299.542 336.502,299.068 336.028 C 298.832 335.792,298.251 335.600,297.776 335.600 C 296.656 335.600,293.371 332.703,292.641 331.070 C 291.573 328.683,291.457 327.388,291.316 316.265 L 291.175 305.130 289.488 305.219 C 286.237 305.390,286.400 305.568,286.400 301.849 C 286.400 297.923,286.665 297.553,289.333 297.752 L 291.200 297.892 291.200 293.389 L 291.200 288.887 292.300 288.583 C 293.683 288.201,299.220 287.678,299.933 287.862 C 300.226 287.938,300.641 288.000,300.856 288.000 M220.000 301.000 L 220.000 308.000 224.992 308.000 C 231.316 308.000,234.800 306.657,234.800 304.221 C 234.800 303.905,234.980 303.536,235.200 303.400 C 235.761 303.054,235.699 299.739,235.100 298.028 C 233.933 294.696,232.255 294.000,225.381 294.000 L 220.000 294.000 220.000 301.000 M123.972 298.055 C 125.513 298.547,126.820 299.048,128.400 299.754 C 131.116 300.966,134.878 305.875,135.947 309.600 C 137.661 315.576,137.651 317.768,135.878 324.200 C 135.076 327.111,132.330 331.430,130.533 332.607 C 129.921 333.008,129.067 333.665,128.635 334.068 C 128.203 334.471,127.534 334.800,127.148 334.800 C 126.763 334.800,126.336 334.980,126.200 335.200 C 126.064 335.420,125.549 335.600,125.056 335.600 C 124.563 335.600,123.950 335.810,123.694 336.066 C 123.021 336.739,112.967 336.717,111.177 336.039 C 99.748 331.710,95.074 318.958,100.541 307.017 C 101.566 304.777,105.959 300.000,106.993 300.000 C 107.327 300.000,107.600 299.820,107.600 299.600 C 107.600 299.380,107.949 299.200,108.376 299.200 C 108.803 299.200,109.264 299.020,109.400 298.800 C 109.536 298.580,110.076 298.400,110.600 298.400 C 111.124 298.400,111.664 298.220,111.800 298.000 C 112.144 297.444,122.197 297.490,123.972 298.055 M164.200 302.000 L 164.200 306.200 161.400 306.425 C 157.317 306.754,154.673 308.330,153.354 311.221 C 151.563 315.147,151.505 315.576,151.327 326.300 L 151.172 335.600 146.586 335.600 C 143.198 335.600,141.993 335.469,141.973 335.100 C 141.820 332.300,142.025 298.684,142.196 298.406 C 142.500 297.914,148.743 297.942,149.672 298.439 C 150.245 298.745,150.400 299.313,150.400 301.097 L 150.400 303.367 152.100 301.745 C 154.371 299.580,156.148 298.400,157.138 298.400 C 157.586 298.400,158.069 298.212,158.210 297.983 C 158.362 297.738,159.649 297.614,161.334 297.683 L 164.200 297.800 164.200 302.000 M177.450 298.081 C 177.613 298.345,177.707 299.245,177.657 300.081 C 177.558 301.758,177.930 301.982,178.948 300.858 C 179.678 300.050,182.167 298.778,184.428 298.056 C 186.190 297.494,193.460 297.450,193.800 298.000 C 193.936 298.220,194.487 298.400,195.024 298.400 C 195.561 298.400,196.000 298.536,196.000 298.702 C 196.000 298.869,196.508 299.229,197.128 299.504 C 206.381 303.600,208.027 324.726,199.665 332.052 C 197.181 334.228,196.415 334.800,195.990 334.800 C 195.770 334.800,195.232 334.980,194.795 335.200 C 194.358 335.420,193.642 335.780,193.205 336.000 C 192.231 336.491,184.255 336.533,183.295 336.052 C 182.913 335.861,181.659 335.233,180.508 334.655 L 178.417 333.606 178.308 341.503 L 178.200 349.400 174.000 349.517 C 171.690 349.581,169.395 349.532,168.900 349.409 L 168.000 349.185 168.000 323.659 C 168.000 309.620,168.120 298.013,168.267 297.867 C 168.764 297.369,177.131 297.564,177.450 298.081 M273.481 298.050 C 276.693 299.341,277.103 299.597,279.078 301.552 C 280.319 302.780,280.797 303.623,282.394 307.400 C 282.952 308.719,283.933 333.755,283.474 334.952 C 283.248 335.539,282.632 335.612,278.707 335.513 L 274.200 335.400 274.076 333.900 C 273.930 332.133,273.546 332.041,272.083 333.422 C 269.291 336.058,262.424 337.373,258.919 335.944 C 255.848 334.692,255.188 334.301,254.243 333.178 C 253.294 332.050,252.852 331.214,251.656 328.281 C 251.094 326.902,251.053 322.138,251.600 321.800 C 251.820 321.664,252.000 321.186,252.000 320.738 C 252.000 319.183,256.523 314.000,257.880 314.000 C 258.172 314.000,258.723 313.838,259.105 313.639 C 260.791 312.763,263.355 312.382,268.200 312.288 L 273.400 312.188 273.298 310.794 C 272.939 305.903,265.718 303.968,258.200 306.749 C 254.377 308.163,254.615 308.367,254.487 303.570 C 254.361 298.845,254.634 298.409,257.719 298.394 C 258.423 298.391,259.270 298.213,259.600 298.000 C 260.447 297.453,272.101 297.495,273.481 298.050 M335.905 297.956 C 336.287 298.152,337.432 298.709,338.450 299.193 C 341.654 300.719,344.971 304.548,345.907 307.800 C 347.156 312.141,347.466 316.725,346.622 318.358 L 345.979 319.600 334.390 319.600 C 328.015 319.600,322.803 319.735,322.806 319.900 C 322.950 327.315,330.938 330.525,340.924 327.180 C 345.212 325.743,344.991 325.589,344.861 329.916 C 344.726 334.414,344.599 334.800,343.253 334.800 C 342.652 334.800,341.989 334.963,341.780 335.161 C 340.894 336.003,328.208 336.768,327.464 336.024 C 327.231 335.791,326.554 335.600,325.961 335.600 C 324.299 335.600,320.431 333.379,318.093 331.083 C 315.147 328.190,314.049 325.892,312.784 319.974 C 311.178 312.467,315.799 302.288,322.200 299.230 C 323.300 298.704,324.470 298.133,324.800 297.961 C 325.635 297.524,335.056 297.520,335.905 297.956 M328.373 304.817 C 325.846 305.493,324.481 307.076,323.439 310.536 C 322.719 312.930,322.314 312.800,330.467 312.800 C 338.417 312.800,338.137 312.919,337.082 310.000 C 335.657 306.057,331.962 303.857,328.373 304.817 M113.598 306.514 C 112.647 307.016,111.674 307.781,111.435 308.214 C 111.196 308.646,110.910 309.090,110.799 309.200 C 106.866 313.120,109.089 325.335,114.154 327.635 C 121.128 330.802,126.572 326.044,126.552 316.800 C 126.532 307.433,120.666 302.776,113.598 306.514 M181.702 306.196 C 180.988 306.506,179.953 307.211,179.402 307.762 L 178.400 308.764 178.400 316.912 C 178.400 325.968,178.343 325.769,181.405 327.314 C 191.325 332.319,199.185 318.509,192.254 308.253 C 190.646 305.874,184.983 304.769,181.702 306.196 M267.000 318.894 C 262.688 319.998,261.446 321.155,261.446 324.070 C 261.446 328.993,266.042 329.871,271.916 326.070 L 274.032 324.701 273.916 321.651 L 273.800 318.600 271.200 318.542 C 269.770 318.511,267.880 318.669,267.000 318.894 " stroke="none" fill="#f7f4f1" fill-rule="evenodd"></path><path id="path2" d="M104.187 69.049 C 103.381 70.782,102.398 72.920,102.003 73.800 C 98.823 80.882,99.538 80.229,94.299 80.837 C 81.573 82.314,82.035 81.638,89.161 88.348 C 92.645 91.628,94.277 93.435,94.181 93.904 C 92.226 103.466,91.860 109.264,93.283 108.105 C 93.821 107.666,95.594 106.662,100.000 104.298 C 101.430 103.531,103.323 102.509,104.207 102.027 L 105.814 101.151 109.207 102.917 C 111.073 103.888,114.016 105.440,115.747 106.366 C 119.253 108.241,120.142 108.277,119.602 106.523 C 119.269 105.441,119.000 104.158,118.022 99.000 C 117.772 97.680,117.401 95.880,117.197 95.000 L 116.827 93.400 122.313 88.139 C 128.622 82.089,128.616 82.128,123.354 81.573 C 112.402 80.416,112.872 80.558,111.727 78.045 C 105.736 64.889,105.985 65.186,104.187 69.049 M167.200 67.401 C 166.777 68.513,165.685 70.973,164.005 74.600 C 163.394 75.920,162.584 77.672,162.205 78.493 C 161.481 80.061,159.963 80.793,157.424 80.798 C 156.777 80.799,155.247 80.980,154.024 81.200 C 152.801 81.419,150.754 81.704,149.475 81.832 C 146.217 82.157,146.239 82.688,149.640 85.876 C 151.239 87.374,153.677 89.680,155.057 91.000 L 157.566 93.400 157.157 95.400 C 156.933 96.500,156.566 98.390,156.342 99.600 C 156.118 100.810,155.769 102.555,155.567 103.477 C 155.182 105.239,155.070 108.000,155.384 108.000 C 155.485 108.000,157.510 106.983,159.884 105.739 C 162.258 104.495,165.208 102.959,166.439 102.324 L 168.678 101.170 171.439 102.632 C 174.904 104.466,178.243 106.317,179.800 107.266 C 182.230 108.747,182.416 108.076,181.210 102.200 C 180.747 99.943,180.112 96.488,179.777 94.400 C 179.558 93.036,179.685 92.875,184.776 88.069 C 191.272 81.937,191.243 82.243,185.400 81.570 C 174.349 80.298,175.273 80.637,173.716 77.289 C 173.029 75.810,171.613 72.755,170.570 70.500 C 168.633 66.313,167.877 65.618,167.200 67.401 M230.035 68.100 C 229.630 69.035,228.736 71.020,228.049 72.510 C 227.362 74.001,226.800 75.300,226.800 75.398 C 226.800 75.880,224.746 79.986,224.397 80.202 C 224.013 80.439,220.453 80.904,213.967 81.562 C 209.041 82.062,208.997 82.242,212.900 85.890 C 220.189 92.702,220.517 93.079,220.211 94.284 C 219.942 95.342,219.724 96.478,218.804 101.600 C 218.587 102.810,218.241 104.610,218.035 105.600 C 217.407 108.615,217.795 108.497,229.839 102.000 L 231.479 101.116 234.839 102.904 C 236.688 103.888,239.596 105.437,241.301 106.346 C 243.007 107.256,244.517 108.000,244.657 108.000 C 244.934 108.000,244.608 104.881,244.031 102.000 C 242.055 92.134,242.072 93.167,243.858 91.629 C 246.398 89.441,252.800 83.110,252.800 82.787 C 252.800 82.278,251.536 81.945,248.200 81.576 C 240.567 80.731,238.888 80.502,238.474 80.245 C 238.051 79.985,236.090 76.096,233.054 69.500 C 231.412 65.932,231.047 65.763,230.035 68.100 M292.847 69.700 C 287.037 82.098,289.216 80.372,277.814 81.601 C 273.200 82.098,272.655 82.518,274.500 84.153 C 280.810 89.750,284.060 93.397,283.803 94.591 C 283.659 95.256,283.375 96.745,283.171 97.900 C 282.639 100.915,282.066 103.945,281.666 105.872 C 281.187 108.173,281.608 108.730,283.059 107.715 C 283.686 107.275,286.630 105.657,289.600 104.118 L 295.000 101.320 297.800 102.788 C 299.340 103.595,302.358 105.194,304.508 106.341 C 309.357 108.928,309.233 109.176,307.578 100.201 L 306.281 93.172 311.541 88.152 C 314.433 85.390,316.800 82.991,316.800 82.820 C 316.800 82.362,308.074 80.800,305.514 80.800 C 302.576 80.800,301.715 80.167,300.155 76.861 C 294.381 64.619,294.961 65.188,292.847 69.700 M285.713 186.512 C 284.827 188.457,281.639 190.199,277.000 191.273 C 273.657 192.047,268.675 193.141,266.400 193.600 C 265.410 193.800,263.700 194.162,262.600 194.404 C 261.500 194.646,259.970 194.936,259.200 195.047 C 258.430 195.158,257.440 195.407,257.000 195.600 C 256.560 195.793,255.570 196.042,254.800 196.153 C 254.030 196.264,252.545 196.546,251.500 196.778 C 247.293 197.713,245.720 198.053,244.000 198.400 C 243.010 198.600,241.345 198.952,240.300 199.182 C 239.255 199.412,237.545 199.788,236.500 200.018 C 235.455 200.248,233.790 200.600,232.800 200.800 C 230.500 201.264,227.883 201.841,225.600 202.386 C 224.610 202.623,223.080 202.917,222.200 203.039 C 221.320 203.161,220.207 203.451,219.727 203.684 C 218.414 204.319,217.469 203.796,217.705 202.565 C 218.222 199.861,217.327 195.852,215.951 194.702 L 214.630 193.600 200.053 193.600 L 185.476 193.600 184.150 194.611 C 182.548 195.833,181.907 197.882,182.044 201.342 L 182.141 203.800 180.571 203.735 C 179.707 203.700,178.190 203.491,177.200 203.270 C 176.210 203.050,174.410 202.667,173.200 202.418 C 171.990 202.169,170.190 201.785,169.200 201.564 C 168.210 201.344,166.590 201.000,165.600 200.800 C 163.891 200.455,162.140 200.077,158.300 199.221 C 157.365 199.013,156.060 198.734,155.400 198.600 C 153.773 198.270,150.901 197.624,149.200 197.205 C 148.430 197.015,146.720 196.653,145.400 196.400 C 144.080 196.147,142.370 195.785,141.600 195.595 C 140.830 195.406,139.300 195.048,138.200 194.800 C 137.100 194.552,135.570 194.194,134.800 194.005 C 134.030 193.815,132.320 193.446,131.000 193.184 C 129.680 192.922,128.060 192.569,127.400 192.400 C 126.740 192.231,125.120 191.861,123.800 191.580 C 120.271 190.827,116.516 189.022,114.909 187.307 L 113.498 185.800 113.744 187.400 C 113.880 188.280,113.999 189.720,114.008 190.600 C 114.039 193.551,117.940 195.498,128.000 197.583 C 129.210 197.834,130.920 198.200,131.800 198.396 C 133.862 198.855,140.316 200.302,143.400 200.997 C 146.647 201.728,152.951 203.106,155.400 203.620 C 157.584 204.078,159.571 204.512,162.500 205.172 C 165.741 205.902,167.709 206.318,170.200 206.797 C 172.846 207.307,175.151 207.857,177.028 208.427 C 177.704 208.632,178.789 208.800,179.439 208.800 C 181.041 208.800,182.499 209.857,182.200 210.801 C 181.833 211.956,182.727 218.029,183.419 219.085 C 185.033 221.549,185.348 221.597,199.800 221.598 C 217.056 221.599,217.110 221.573,217.581 213.006 L 217.800 209.011 219.400 208.688 C 220.280 208.511,221.900 208.193,223.000 207.983 C 224.100 207.772,225.855 207.420,226.900 207.200 C 227.945 206.980,229.565 206.640,230.500 206.444 C 231.435 206.248,233.910 205.704,236.000 205.235 C 238.090 204.766,240.340 204.281,241.000 204.157 C 241.660 204.032,243.730 203.591,245.600 203.175 C 247.470 202.760,251.610 201.853,254.800 201.160 C 257.990 200.467,261.230 199.760,262.000 199.590 C 262.770 199.420,264.390 199.064,265.600 198.800 C 266.810 198.536,268.430 198.176,269.200 198.000 C 269.970 197.824,271.590 197.464,272.800 197.200 C 280.928 195.424,282.559 194.814,284.876 192.682 C 286.389 191.290,287.048 188.784,286.469 186.620 L 286.171 185.507 285.713 186.512 M212.200 207.600 L 212.200 216.200 200.000 216.200 L 187.800 216.200 187.691 208.011 C 187.632 203.507,187.672 199.589,187.781 199.305 C 187.938 198.895,190.485 198.810,200.090 198.894 L 212.200 199.000 212.200 207.600 " stroke="none" fill="#edb52c" fill-rule="evenodd"></path><path id="path3" d="M170.700 118.636 C 167.281 119.874,164.519 121.735,163.101 123.758 C 162.426 124.721,162.727 124.550,164.439 123.000 C 166.620 121.026,168.840 119.747,171.628 118.856 C 173.851 118.147,224.723 118.229,227.417 118.947 C 230.498 119.767,232.260 120.734,234.737 122.963 C 235.982 124.083,236.730 124.643,236.400 124.207 C 234.386 121.546,231.691 119.792,227.572 118.461 C 225.345 117.742,172.723 117.904,170.700 118.636 M161.397 126.148 C 159.107 129.643,157.819 139.600,159.657 139.600 C 159.945 139.600,159.967 139.427,159.719 139.100 C 158.631 137.665,159.568 130.725,161.326 127.198 C 162.387 125.069,162.419 124.588,161.397 126.148 M237.927 127.231 C 238.469 128.325,238.990 129.144,239.084 129.049 C 239.296 128.837,237.738 125.733,237.277 125.448 C 237.093 125.334,237.386 126.136,237.927 127.231 M239.505 131.200 C 239.658 132.190,239.786 134.468,239.791 136.262 C 239.796 138.056,239.935 139.440,240.100 139.338 C 240.590 139.035,240.367 133.559,239.776 131.400 L 239.229 129.400 239.505 131.200 M188.129 131.500 C 194.689 131.562,205.309 131.561,211.729 131.500 C 218.148 131.438,212.780 131.387,199.800 131.388 C 186.820 131.388,181.568 131.438,188.129 131.500 M174.980 132.052 C 174.530 132.271,173.921 132.844,173.628 133.325 C 173.137 134.131,173.185 134.122,174.247 133.206 C 174.881 132.659,175.571 132.074,175.780 131.906 C 176.275 131.507,175.998 131.558,174.980 132.052 M223.600 132.037 C 223.600 132.237,223.960 132.400,224.400 132.400 C 224.840 132.400,225.200 132.580,225.200 132.800 C 225.200 133.020,225.402 133.200,225.649 133.200 C 225.975 133.200,225.971 133.047,225.636 132.643 C 225.077 131.970,223.600 131.530,223.600 132.037 M123.800 143.822 C 122.900 144.137,122.725 144.263,123.400 144.111 C 124.060 143.961,158.530 143.739,200.000 143.617 L 275.400 143.395 200.400 143.328 C 137.014 143.272,125.152 143.348,123.800 143.822 M276.400 144.071 C 276.950 144.300,278.428 144.980,279.686 145.582 C 280.943 146.184,281.866 146.507,281.737 146.299 C 281.413 145.773,276.734 143.595,276.000 143.627 C 275.670 143.642,275.850 143.842,276.400 144.071 M120.265 145.047 C 119.640 145.386,119.206 145.739,119.300 145.833 C 119.487 146.020,122.000 144.846,122.000 144.571 C 122.000 144.262,121.418 144.422,120.265 145.047 M282.411 146.904 C 282.405 147.071,282.965 147.791,283.657 148.504 C 284.348 149.217,285.383 150.790,285.957 152.000 L 287.000 154.200 286.971 168.800 C 286.955 176.830,286.844 183.940,286.724 184.600 C 286.604 185.260,286.587 185.440,286.687 185.000 C 286.786 184.560,287.032 184.029,287.234 183.820 C 287.791 183.242,287.706 155.098,287.144 153.719 C 285.895 150.656,285.470 149.927,284.005 148.328 C 283.134 147.378,282.417 146.737,282.411 146.904 M114.983 149.460 C 114.260 150.409,113.593 151.548,112.739 153.295 C 112.553 153.677,112.406 154.397,112.414 154.895 C 112.423 155.441,112.725 154.978,113.176 153.723 C 114.063 151.261,114.266 150.881,115.328 149.702 C 115.773 149.207,116.053 148.720,115.951 148.618 C 115.849 148.516,115.413 148.895,114.983 149.460 M111.852 156.900 C 111.444 158.422,111.579 180.949,112.000 181.600 C 112.255 181.994,112.390 177.706,112.394 169.100 C 112.400 156.292,112.345 155.060,111.852 156.900 M112.418 183.054 C 112.408 183.524,112.669 184.424,112.998 185.054 C 113.754 186.505,113.761 185.881,113.012 183.800 C 112.639 182.765,112.429 182.502,112.418 183.054 M286.790 191.063 C 287.460 191.396,287.316 252.395,286.638 255.228 C 285.290 260.867,282.525 263.835,276.281 266.349 C 275.465 266.678,254.783 266.798,199.881 266.794 C 123.773 266.788,122.635 266.769,121.341 265.474 C 120.936 265.069,120.316 265.141,120.577 265.563 C 121.618 267.247,120.815 267.232,200.621 267.113 L 276.242 267.000 278.952 265.625 C 282.884 263.628,285.999 259.849,287.049 255.800 C 287.625 253.582,287.471 191.081,286.890 190.963 C 286.610 190.907,286.565 190.952,286.790 191.063 M112.400 223.072 C 112.400 255.863,112.379 255.441,114.152 259.164 C 114.971 260.884,117.789 264.045,119.157 264.777 C 119.532 264.978,118.652 263.934,117.203 262.458 C 112.561 257.733,112.800 259.873,112.800 223.046 C 112.800 195.538,112.870 191.941,113.400 192.145 C 113.730 192.271,114.000 192.201,114.000 191.987 C 114.000 191.774,113.640 191.600,113.200 191.600 C 112.407 191.600,112.400 191.867,112.400 223.072 M75.000 285.027 C 72.326 285.611,69.557 286.616,71.800 286.189 C 72.460 286.063,73.900 285.751,75.000 285.494 C 77.559 284.899,85.089 284.907,88.200 285.510 C 92.451 286.333,93.647 286.475,92.200 285.986 C 87.752 284.483,79.581 284.027,75.000 285.027 M210.019 285.777 C 209.356 286.576,209.532 334.803,210.200 335.294 C 210.420 335.456,212.715 335.591,215.300 335.594 L 220.000 335.600 220.000 325.771 L 220.000 315.941 223.382 316.071 C 225.242 316.142,226.620 316.057,226.444 315.882 C 226.268 315.707,224.701 315.617,222.962 315.682 L 219.800 315.800 219.693 325.500 L 219.586 335.200 214.993 335.200 L 210.400 335.200 210.400 310.377 L 210.400 285.555 221.900 285.735 C 228.225 285.834,234.120 286.021,235.000 286.151 C 236.543 286.379,236.557 286.371,235.400 285.929 C 233.288 285.122,210.675 284.986,210.019 285.777 M68.501 287.189 C 59.479 291.284,53.837 301.571,54.543 312.640 C 54.834 317.206,55.192 319.548,55.642 319.826 C 55.839 319.948,56.000 320.318,56.000 320.649 C 56.000 324.270,62.852 331.969,68.200 334.357 C 68.860 334.652,69.713 335.052,70.095 335.247 C 70.477 335.441,71.197 335.594,71.695 335.586 C 72.242 335.577,71.779 335.276,70.525 334.824 C 50.998 327.795,49.153 297.255,67.700 288.062 C 69.185 287.326,70.400 286.651,70.400 286.562 C 70.400 286.330,70.373 286.339,68.501 287.189 M93.885 286.858 C 94.174 287.208,94.426 289.138,94.508 291.623 L 94.645 295.800 94.623 291.233 C 94.604 287.541,94.485 286.627,94.000 286.468 C 93.515 286.308,93.493 286.382,93.885 286.858 M236.800 286.603 C 236.800 286.715,237.520 287.094,238.399 287.446 C 242.669 289.155,245.000 293.659,245.000 300.200 C 245.000 304.018,244.818 304.917,243.373 308.218 C 242.579 310.034,240.326 312.166,237.951 313.349 C 236.792 313.927,236.151 314.400,236.527 314.400 C 238.404 314.400,243.080 310.326,243.994 307.894 C 244.262 307.182,244.688 306.168,244.940 305.639 C 245.651 304.153,245.471 295.329,244.695 293.600 C 243.165 290.192,236.800 284.552,236.800 286.603 M293.200 288.400 L 292.200 288.720 293.200 288.737 C 293.750 288.746,294.920 288.605,295.800 288.423 L 297.400 288.092 295.800 288.086 C 294.920 288.083,293.750 288.224,293.200 288.400 M300.491 292.701 C 300.351 298.691,300.027 298.351,306.016 298.487 L 311.000 298.600 311.000 301.800 L 311.000 305.000 306.400 305.220 L 301.800 305.440 306.067 305.520 C 311.833 305.628,311.600 305.786,311.600 301.781 C 311.600 297.729,311.734 297.830,306.535 297.959 C 300.582 298.107,300.978 298.485,301.124 292.806 C 301.191 290.163,301.101 288.000,300.924 288.001 C 300.746 288.001,300.551 290.116,300.491 292.701 M291.200 293.346 L 291.200 297.892 289.333 297.752 C 286.665 297.553,286.400 297.923,286.400 301.849 C 286.400 303.692,286.535 305.200,286.700 305.201 C 286.865 305.201,287.000 303.716,287.000 301.901 L 287.000 298.600 289.400 298.400 L 291.800 298.200 291.800 293.501 C 291.800 290.917,291.665 288.802,291.500 288.801 C 291.335 288.800,291.200 290.846,291.200 293.346 M82.200 294.039 C 87.391 294.360,89.486 294.691,89.829 295.246 C 89.949 295.441,90.352 295.595,90.724 295.588 C 91.313 295.577,91.303 295.519,90.645 295.137 C 88.934 294.144,85.644 293.612,81.600 293.676 L 77.400 293.742 82.200 294.039 M219.867 293.867 C 219.720 294.013,219.600 297.343,219.600 301.267 L 219.600 308.400 224.951 308.400 C 231.879 308.400,233.987 307.499,235.525 303.881 C 237.069 300.246,234.590 293.909,231.669 294.027 C 231.209 294.046,231.313 294.201,232.000 294.524 C 234.747 295.814,237.066 302.247,235.200 303.400 C 234.980 303.536,234.800 303.905,234.800 304.221 C 234.800 306.657,231.316 308.000,224.992 308.000 L 220.000 308.000 220.000 301.011 L 220.000 294.023 225.500 293.899 L 231.000 293.775 225.567 293.688 C 222.578 293.639,220.013 293.720,219.867 293.867 M75.800 294.400 C 75.029 294.731,75.031 294.745,75.876 294.772 C 76.358 294.787,76.864 294.620,77.000 294.400 C 77.292 293.927,76.901 293.927,75.800 294.400 M73.400 295.426 C 72.135 296.081,69.200 298.757,69.200 299.255 C 69.200 299.416,70.112 298.660,71.227 297.574 C 72.341 296.488,73.501 295.600,73.803 295.600 C 74.105 295.600,74.464 295.420,74.600 295.200 C 74.926 294.672,74.816 294.693,73.400 295.426 M94.400 296.443 C 94.400 296.686,94.130 296.782,93.800 296.655 C 93.470 296.529,93.200 296.599,93.200 296.813 C 93.200 297.026,93.560 297.200,94.000 297.200 C 94.444 297.200,94.800 296.933,94.800 296.600 C 94.800 296.270,94.710 296.000,94.600 296.000 C 94.490 296.000,94.400 296.199,94.400 296.443 M111.862 297.900 C 111.760 298.065,114.433 298.200,117.801 298.200 C 121.169 298.200,123.717 298.068,123.462 297.906 C 122.852 297.518,112.101 297.513,111.862 297.900 M158.268 297.889 C 158.159 298.067,159.403 298.145,161.034 298.062 L 164.000 297.913 164.000 301.956 L 164.000 306.000 161.412 306.000 C 157.822 306.000,154.692 307.787,153.353 310.600 L 152.782 311.800 153.486 310.800 C 155.647 307.730,157.430 306.744,161.400 306.425 L 164.200 306.200 164.200 302.000 L 164.200 297.800 161.334 297.683 C 159.758 297.619,158.378 297.712,158.268 297.889 M168.267 297.867 C 168.120 298.013,168.000 309.620,168.000 323.659 L 168.000 349.185 168.900 349.409 C 169.395 349.532,171.690 349.581,174.000 349.517 L 178.200 349.400 178.308 341.492 L 178.417 333.584 180.223 334.592 C 181.216 335.146,182.242 335.600,182.503 335.600 C 182.764 335.600,181.937 335.060,180.665 334.400 C 179.393 333.740,178.273 333.200,178.176 333.200 C 178.079 333.200,178.000 336.800,178.000 341.200 L 178.000 349.200 173.400 349.200 L 168.800 349.200 168.740 324.200 C 168.707 310.450,168.662 298.975,168.640 298.700 C 168.611 298.335,169.760 298.169,172.900 298.086 L 177.200 297.973 177.200 299.986 C 177.200 302.116,177.789 302.618,178.826 301.369 C 180.508 299.342,185.607 297.874,190.324 298.059 C 192.304 298.136,193.841 298.065,193.739 297.900 C 193.445 297.426,186.011 297.551,184.428 298.056 C 182.167 298.778,179.678 300.050,178.948 300.858 C 177.930 301.982,177.558 301.758,177.657 300.081 C 177.707 299.245,177.613 298.345,177.450 298.081 C 177.131 297.564,168.764 297.369,168.267 297.867 M259.658 297.956 C 259.341 298.156,260.339 298.224,262.058 298.118 C 266.013 297.874,266.415 297.669,263.000 297.638 C 261.460 297.624,259.956 297.767,259.658 297.956 M269.633 297.744 C 269.725 297.823,270.700 298.001,271.800 298.141 C 273.165 298.314,273.610 298.270,273.200 298.003 C 272.659 297.650,269.236 297.401,269.633 297.744 M325.015 297.976 C 324.876 298.201,325.391 298.259,326.291 298.120 C 328.300 297.810,328.461 297.600,326.690 297.600 C 325.897 297.600,325.143 297.769,325.015 297.976 M332.433 297.745 C 332.828 298.089,335.981 298.293,335.776 297.962 C 335.653 297.763,334.813 297.600,333.910 297.600 C 333.006 297.600,332.342 297.665,332.433 297.745 M142.080 298.480 C 141.816 298.744,141.600 299.138,141.600 299.356 C 141.600 299.575,141.825 299.458,142.100 299.097 C 142.375 298.736,143.320 298.372,144.200 298.288 L 145.800 298.134 144.180 298.067 C 143.289 298.030,142.344 298.216,142.080 298.480 M147.000 298.270 C 149.891 298.630,149.996 298.707,150.067 300.508 L 150.134 302.200 150.296 300.616 C 150.497 298.656,149.731 297.975,147.424 298.060 C 146.129 298.108,146.043 298.150,147.000 298.270 M109.400 298.800 C 109.264 299.020,108.803 299.200,108.376 299.200 C 107.949 299.200,107.600 299.380,107.600 299.600 C 107.600 299.820,107.364 300.000,107.075 300.000 C 106.526 300.000,102.377 303.563,102.899 303.587 C 103.064 303.594,103.822 303.011,104.585 302.292 C 105.807 301.139,109.082 299.226,110.800 298.661 C 111.179 298.536,111.077 298.452,110.524 298.432 C 110.042 298.414,109.536 298.580,109.400 298.800 M126.156 299.237 C 129.053 300.412,131.409 302.264,133.063 304.665 C 133.871 305.839,134.611 306.723,134.705 306.628 C 135.364 305.969,130.408 300.704,128.119 299.631 C 127.503 299.343,126.687 298.948,126.305 298.753 C 125.923 298.559,125.293 298.410,124.905 298.422 C 124.517 298.434,125.080 298.801,126.156 299.237 M154.400 299.759 C 153.410 300.496,152.060 301.702,151.400 302.440 C 150.692 303.231,151.065 302.996,152.307 301.868 C 153.466 300.815,155.176 299.609,156.107 299.186 C 157.141 298.717,157.489 298.418,157.000 298.419 C 156.560 298.419,155.390 299.023,154.400 299.759 M196.200 299.399 C 208.031 305.285,207.593 328.522,195.538 334.525 C 194.362 335.110,193.704 335.592,194.076 335.595 C 194.448 335.598,194.864 335.420,195.000 335.200 C 195.136 334.980,195.505 334.800,195.819 334.800 C 197.328 334.800,201.092 330.930,202.652 327.774 C 207.660 317.641,204.778 302.890,197.128 299.504 C 196.508 299.229,196.000 298.869,196.000 298.702 C 196.000 298.536,195.595 298.401,195.100 298.402 C 194.460 298.403,194.777 298.691,196.200 299.399 M255.287 298.894 C 254.128 299.453,254.044 307.875,255.200 307.719 C 256.544 307.536,260.158 306.026,259.281 306.013 C 258.775 306.006,257.616 306.360,256.706 306.800 C 255.795 307.240,254.987 307.600,254.911 307.600 C 254.835 307.600,254.823 305.756,254.886 303.502 L 255.000 299.404 257.000 298.940 C 258.813 298.520,258.869 298.476,257.600 298.465 C 256.830 298.459,255.789 298.652,255.287 298.894 M275.101 299.060 C 278.074 300.525,281.600 304.702,281.600 306.758 C 281.600 307.133,281.822 307.662,282.094 307.934 C 282.454 308.294,282.619 311.127,282.700 318.314 C 282.761 323.751,282.853 329.775,282.905 331.700 L 283.000 335.200 278.700 335.200 L 274.400 335.200 274.400 333.624 C 274.400 331.895,274.069 331.459,273.181 332.020 C 272.694 332.328,272.710 332.389,273.276 332.394 C 273.767 332.398,273.986 332.811,274.076 333.900 L 274.200 335.400 278.707 335.513 C 282.632 335.612,283.248 335.539,283.474 334.952 C 283.933 333.755,282.952 308.719,282.394 307.400 C 280.797 303.623,280.319 302.780,279.078 301.552 C 277.152 299.646,275.248 298.392,274.305 298.409 C 274.027 298.414,274.385 298.707,275.101 299.060 M320.945 299.938 C 316.767 302.638,312.714 309.262,313.307 312.421 C 313.461 313.237,313.500 313.187,313.546 312.119 C 313.624 310.271,314.743 307.557,316.564 304.800 C 318.152 302.396,320.147 300.598,322.564 299.393 C 323.660 298.847,324.280 298.400,323.941 298.400 C 323.601 298.400,322.253 299.092,320.945 299.938 M338.200 299.417 C 342.138 301.414,345.911 306.525,346.054 310.057 C 346.098 311.128,346.146 311.202,346.293 310.421 C 346.972 306.803,340.250 298.389,336.689 298.402 C 336.420 298.403,337.100 298.860,338.200 299.417 M67.838 301.377 C 66.010 305.228,65.261 310.543,65.946 314.800 C 66.249 316.679,66.307 316.200,66.350 311.519 C 66.378 308.504,66.602 305.534,66.850 304.919 C 67.097 304.303,67.478 303.350,67.696 302.800 C 67.915 302.250,68.265 301.467,68.474 301.061 C 68.684 300.655,68.777 300.243,68.680 300.147 C 68.584 300.050,68.205 300.604,67.838 301.377 M101.877 304.715 C 99.043 307.847,97.643 316.221,98.955 322.200 C 99.528 324.816,100.694 327.840,101.007 327.526 C 101.115 327.418,100.915 326.752,100.562 326.045 C 97.717 320.340,98.442 310.545,102.113 305.100 C 102.956 303.849,102.837 303.654,101.877 304.715 M329.633 304.544 C 329.725 304.624,330.610 304.806,331.600 304.950 C 332.858 305.133,333.219 305.091,332.800 304.812 C 332.260 304.453,329.232 304.197,329.633 304.544 M114.000 305.726 C 112.198 306.577,109.699 309.200,110.691 309.200 C 110.867 309.200,111.188 308.806,111.405 308.324 C 113.077 304.614,121.588 304.721,124.558 308.489 C 125.126 309.210,125.593 309.602,125.596 309.359 C 125.624 306.545,117.595 304.029,114.000 305.726 M182.255 305.511 C 182.149 305.683,183.318 305.752,184.852 305.665 C 189.373 305.410,191.869 306.778,193.487 310.400 C 196.363 316.837,194.478 324.739,189.400 327.535 C 188.809 327.861,188.762 327.979,189.221 327.988 C 190.061 328.004,193.116 324.927,193.759 323.417 C 196.651 316.622,194.859 308.321,189.982 305.919 C 188.544 305.211,182.633 304.899,182.255 305.511 M260.930 305.511 C 260.671 305.676,262.381 305.750,264.730 305.676 C 270.590 305.491,273.120 307.034,273.323 310.914 C 273.365 311.729,273.551 312.397,273.735 312.398 C 274.216 312.401,273.605 309.180,272.930 308.149 C 271.302 305.665,263.414 303.931,260.930 305.511 M291.206 316.100 C 291.210 322.561,291.372 327.244,291.606 327.600 C 291.867 327.999,291.966 324.345,291.900 316.701 C 291.845 310.376,291.665 305.201,291.500 305.201 C 291.335 305.200,291.203 310.105,291.206 316.100 M300.402 314.100 C 300.406 327.811,301.622 329.547,309.715 327.397 L 310.830 327.101 310.715 331.033 C 310.604 334.839,310.568 334.975,309.600 335.261 C 308.669 335.536,308.683 335.551,309.800 335.478 L 311.000 335.400 311.000 331.200 L 311.000 327.000 309.800 327.106 C 309.140 327.164,307.520 327.316,306.200 327.444 C 303.040 327.751,301.862 326.914,301.217 323.903 C 300.610 321.075,300.714 305.708,301.341 305.451 C 301.594 305.348,301.485 305.249,301.100 305.232 C 300.453 305.202,300.400 305.878,300.402 314.100 M325.327 306.100 C 323.836 307.753,322.106 312.000,322.599 312.798 C 322.751 313.045,325.775 313.200,330.424 313.200 L 338.000 313.200 338.000 311.996 C 338.000 309.840,335.231 305.200,333.945 305.200 C 333.755 305.200,334.275 305.881,335.100 306.714 C 336.453 308.079,337.600 310.593,337.600 312.194 C 337.600 312.800,323.702 313.169,323.112 312.579 C 322.444 311.911,324.994 306.395,326.331 305.615 C 326.699 305.400,326.806 305.219,326.570 305.212 C 326.333 305.205,325.774 305.605,325.327 306.100 M179.491 307.229 L 178.000 308.458 178.013 316.729 C 178.022 322.611,178.166 325.178,178.513 325.615 C 179.237 326.528,181.445 328.002,182.062 327.984 C 182.358 327.975,182.060 327.683,181.400 327.335 C 178.337 325.721,178.400 325.934,178.400 317.163 C 178.400 308.225,178.383 308.312,180.343 306.980 C 181.137 306.441,181.605 306.000,181.384 306.000 C 181.163 306.000,180.311 306.553,179.491 307.229 M135.612 309.600 C 135.612 309.930,135.787 310.470,136.000 310.800 C 136.345 311.333,136.388 311.333,136.388 310.800 C 136.388 310.470,136.213 309.930,136.000 309.600 C 135.655 309.067,135.612 309.067,135.612 309.600 M109.249 311.600 C 109.216 311.930,109.089 312.650,108.967 313.200 C 108.775 314.064,108.807 314.103,109.199 313.488 C 109.448 313.097,109.575 312.377,109.481 311.888 C 109.386 311.400,109.282 311.270,109.249 311.600 M346.569 314.288 C 346.586 315.780,346.462 317.495,346.292 318.100 L 345.985 319.200 334.146 319.200 L 322.307 319.200 322.553 320.200 C 322.689 320.750,322.918 321.695,323.062 322.300 C 323.596 324.534,327.092 328.641,327.832 327.901 C 327.934 327.799,327.401 327.293,326.647 326.776 C 324.946 325.610,322.844 321.847,322.806 319.900 C 322.803 319.735,328.015 319.600,334.390 319.600 L 345.979 319.600 346.590 318.420 C 347.236 317.170,347.418 312.962,346.863 312.088 C 346.680 311.799,346.552 312.757,346.569 314.288 M126.600 317.000 C 126.600 319.514,126.722 321.262,126.872 320.885 C 127.021 320.508,127.144 318.760,127.144 317.000 C 127.144 315.240,127.021 313.492,126.872 313.115 C 126.722 312.738,126.600 314.486,126.600 317.000 M136.552 316.715 C 136.524 319.207,136.638 320.665,136.824 320.200 C 137.214 319.225,137.249 314.064,136.872 313.115 C 136.722 312.739,136.578 314.359,136.552 316.715 M261.600 312.821 C 261.170 313.114,261.454 313.154,262.600 312.962 C 264.584 312.630,264.904 312.398,263.367 312.406 C 262.725 312.409,261.930 312.596,261.600 312.821 M312.643 314.233 C 311.813 316.395,313.117 323.371,315.068 327.207 C 316.927 330.863,323.180 335.666,325.941 335.559 C 326.961 335.520,326.955 335.507,325.774 335.225 C 317.989 333.362,311.507 323.098,313.021 315.031 C 313.296 313.564,313.077 313.102,312.643 314.233 M256.629 314.609 C 255.463 315.491,256.034 315.594,257.400 314.747 C 258.060 314.339,258.330 314.009,258.000 314.015 C 257.670 314.021,257.053 314.288,256.629 314.609 M151.649 314.800 C 151.616 315.130,151.489 315.850,151.367 316.400 C 151.175 317.264,151.207 317.303,151.599 316.688 C 151.848 316.297,151.975 315.577,151.881 315.088 C 151.786 314.600,151.682 314.470,151.649 314.800 M108.524 317.000 C 108.526 318.320,108.601 318.812,108.690 318.093 C 108.779 317.374,108.777 316.294,108.686 315.693 C 108.595 315.092,108.522 315.680,108.524 317.000 M236.473 315.800 C 236.723 316.350,237.084 316.800,237.273 316.800 C 237.463 316.800,237.324 316.350,236.963 315.800 C 236.603 315.250,236.243 314.800,236.163 314.800 C 236.083 314.800,236.222 315.250,236.473 315.800 M254.535 316.500 C 253.085 318.123,252.000 319.910,252.009 320.662 C 252.014 321.073,252.342 320.685,252.750 319.787 C 253.153 318.900,253.734 317.909,254.041 317.586 C 254.940 316.639,255.713 315.600,255.519 315.600 C 255.420 315.600,254.978 316.005,254.535 316.500 M66.599 318.050 C 69.425 327.491,82.994 331.154,92.744 325.108 C 93.545 324.611,94.348 324.253,94.530 324.312 C 94.711 324.371,94.747 324.239,94.610 324.017 C 94.461 323.775,93.745 324.022,92.822 324.633 C 87.482 328.167,79.046 328.609,73.385 325.652 C 70.726 324.263,67.200 320.021,67.200 318.211 C 67.200 317.901,67.001 317.524,66.757 317.374 C 66.454 317.186,66.404 317.400,66.599 318.050 M237.600 317.340 C 237.600 317.491,240.087 321.346,243.126 325.907 C 246.165 330.468,248.786 334.425,248.950 334.700 C 249.182 335.090,248.018 335.200,243.642 335.200 L 238.038 335.200 234.569 329.383 C 232.662 326.183,231.014 323.653,230.907 323.760 C 230.800 323.867,231.092 324.487,231.556 325.139 C 232.020 325.790,232.400 326.521,232.400 326.762 C 232.400 327.003,232.559 327.200,232.753 327.200 C 232.948 327.200,233.210 327.515,233.336 327.900 C 233.462 328.285,234.068 329.418,234.682 330.418 C 235.297 331.417,236.250 332.991,236.800 333.915 L 237.800 335.594 243.476 335.597 C 246.598 335.599,249.241 335.458,249.348 335.284 C 249.456 335.110,246.944 331.027,243.767 326.212 C 237.803 317.174,237.600 316.881,237.600 317.340 M265.800 318.800 C 265.071 319.113,265.088 319.144,266.000 319.144 C 266.550 319.144,267.360 318.989,267.800 318.800 C 268.529 318.487,268.512 318.456,267.600 318.456 C 267.050 318.456,266.240 318.611,265.800 318.800 M273.929 321.579 L 274.057 324.684 271.929 326.062 C 267.608 328.858,264.916 329.207,262.729 327.253 C 261.022 325.728,260.874 322.664,262.423 320.908 L 263.400 319.800 262.344 320.728 C 261.055 321.862,260.660 323.595,261.219 325.672 C 262.308 329.716,267.916 329.804,272.900 325.855 C 274.367 324.692,275.254 319.379,274.100 318.660 C 273.935 318.558,273.858 319.871,273.929 321.579 M228.425 319.800 C 228.425 320.020,228.690 320.549,229.013 320.976 C 229.336 321.404,229.600 321.573,229.600 321.353 C 229.600 321.133,229.336 320.604,229.013 320.176 C 228.690 319.749,228.425 319.580,228.425 319.800 M109.025 321.200 C 110.483 328.679,118.468 331.386,123.900 326.243 C 124.835 325.358,125.600 324.459,125.600 324.245 C 125.600 324.031,124.951 324.614,124.159 325.540 C 121.722 328.386,117.674 329.243,114.200 327.648 C 112.003 326.639,109.610 323.543,109.594 321.688 C 109.591 321.310,109.400 320.730,109.170 320.400 C 108.862 319.959,108.824 320.170,109.025 321.200 M251.467 321.867 C 251.005 322.329,251.189 326.934,251.732 328.493 C 252.553 330.850,252.862 330.755,252.152 328.364 C 251.729 326.944,251.580 325.409,251.716 323.900 C 251.931 321.528,251.917 321.416,251.467 321.867 M135.800 323.200 C 135.650 323.673,135.617 324.150,135.727 324.260 C 135.837 324.370,136.050 324.073,136.200 323.600 C 136.350 323.127,136.383 322.650,136.273 322.540 C 136.163 322.430,135.950 322.727,135.800 323.200 M342.600 326.647 C 341.588 327.146,341.556 327.200,342.400 326.994 C 344.574 326.461,344.507 326.355,344.426 330.200 C 344.346 333.992,344.275 334.208,343.000 334.515 C 342.382 334.664,342.444 334.718,343.273 334.754 C 344.604 334.811,344.725 334.434,344.865 329.803 C 344.986 325.813,344.804 325.560,342.600 326.647 M339.800 327.600 C 339.029 327.931,339.031 327.945,339.876 327.972 C 340.358 327.987,340.864 327.820,341.000 327.600 C 341.292 327.127,340.901 327.127,339.800 327.600 M101.200 328.338 C 101.200 328.524,101.588 329.019,102.062 329.438 L 102.924 330.200 102.216 329.100 C 101.486 327.966,101.200 327.751,101.200 328.338 M183.449 328.449 C 184.438 328.837,187.277 328.866,187.861 328.494 C 188.115 328.332,187.057 328.190,185.511 328.177 C 183.916 328.164,183.023 328.282,183.449 328.449 M328.590 328.384 C 328.732 328.613,329.317 328.800,329.890 328.800 C 331.144 328.800,330.999 328.608,329.466 328.240 C 328.723 328.062,328.421 328.111,328.590 328.384 M336.400 328.400 L 335.000 328.695 336.400 328.741 C 337.170 328.767,338.070 328.613,338.400 328.400 C 339.127 327.930,338.633 327.930,336.400 328.400 M132.259 330.206 C 131.429 331.200,129.818 332.640,128.680 333.406 C 127.542 334.173,126.889 334.800,127.230 334.800 C 127.570 334.800,128.203 334.471,128.635 334.068 C 129.067 333.665,129.921 333.008,130.533 332.607 C 131.455 332.003,134.342 328.400,133.904 328.400 C 133.830 328.400,133.090 329.213,132.259 330.206 M292.034 329.039 C 291.950 331.099,295.901 335.619,297.756 335.584 C 298.385 335.573,298.244 335.415,297.203 334.963 C 294.839 333.938,293.230 332.019,292.374 329.203 C 292.108 328.330,292.064 328.308,292.034 329.039 M104.429 332.116 C 106.857 334.353,111.082 336.423,113.119 336.374 C 113.870 336.355,113.569 336.177,112.129 335.789 C 109.018 334.951,106.598 333.694,104.756 331.958 C 103.846 331.101,102.988 330.407,102.851 330.416 C 102.713 330.425,103.423 331.190,104.429 332.116 M252.807 331.009 C 252.803 331.234,253.350 332.085,254.022 332.901 C 255.150 334.269,255.796 334.670,258.919 335.944 C 262.274 337.312,268.716 336.197,271.731 333.727 C 273.275 332.461,272.799 332.562,270.720 333.941 C 265.393 337.475,256.534 336.409,253.637 331.886 C 253.184 331.179,252.810 330.784,252.807 331.009 M91.800 335.200 L 90.600 335.505 91.876 335.553 C 92.578 335.579,93.264 335.420,93.400 335.200 C 93.674 334.757,93.540 334.757,91.800 335.200 M125.000 335.200 C 124.229 335.531,124.231 335.545,125.076 335.572 C 125.558 335.587,126.064 335.420,126.200 335.200 C 126.492 334.727,126.101 334.727,125.000 335.200 M340.000 335.200 L 338.600 335.495 340.076 335.547 C 340.888 335.576,341.664 335.420,341.800 335.200 C 342.068 334.766,342.061 334.766,340.000 335.200 M144.115 335.496 C 145.388 335.576,147.368 335.575,148.515 335.494 C 149.662 335.414,148.620 335.349,146.200 335.350 C 143.780 335.351,142.842 335.416,144.115 335.496 M73.246 336.037 C 73.765 336.365,77.129 336.572,76.767 336.253 C 76.675 336.172,75.721 336.012,74.646 335.896 C 73.451 335.768,72.907 335.822,73.246 336.037 M88.000 336.000 L 86.200 336.280 88.076 336.340 C 89.108 336.373,90.064 336.220,90.200 336.000 C 90.336 335.780,90.302 335.627,90.124 335.660 C 89.946 335.693,88.990 335.846,88.000 336.000 M122.000 336.000 L 120.600 336.295 122.076 336.347 C 122.888 336.376,123.664 336.220,123.800 336.000 C 124.068 335.566,124.061 335.566,122.000 336.000 M183.431 336.050 C 183.550 336.242,184.477 336.400,185.490 336.400 C 186.504 336.400,187.258 336.334,187.167 336.253 C 186.790 335.921,183.232 335.728,183.431 336.050 M190.800 336.000 L 189.000 336.280 190.876 336.340 C 191.908 336.373,192.864 336.220,193.000 336.000 C 193.136 335.780,193.102 335.627,192.924 335.660 C 192.746 335.693,191.790 335.846,190.800 336.000 M299.062 336.100 C 299.301 336.487,306.853 336.481,307.463 336.094 C 307.717 335.932,305.889 335.800,303.401 335.800 C 300.913 335.800,298.961 335.935,299.062 336.100 M327.462 336.100 C 327.701 336.487,336.853 336.482,337.462 336.094 C 337.716 335.932,335.528 335.800,332.600 335.800 C 329.672 335.800,327.360 335.935,327.462 336.100 M79.000 336.758 C 79.660 336.910,81.370 336.919,82.800 336.778 C 85.270 336.535,85.209 336.521,81.600 336.502 C 79.353 336.490,78.290 336.595,79.000 336.758 M116.500 336.687 C 117.105 336.778,118.095 336.778,118.700 336.687 C 119.305 336.595,118.810 336.520,117.600 336.520 C 116.390 336.520,115.895 336.595,116.500 336.687 " stroke="none" fill="#95b5c1" fill-rule="evenodd"></path><path id="path4" d="M234.783 123.300 C 235.764 124.345,236.619 125.200,236.683 125.200 C 236.984 125.200,236.666 124.841,234.900 123.183 L 233.000 121.400 234.783 123.300 M239.678 136.100 L 239.600 139.200 233.420 139.200 L 227.240 139.200 227.087 136.998 L 226.934 134.796 226.967 137.098 L 227.000 139.400 233.309 139.510 C 240.544 139.637,240.109 139.884,239.898 135.760 L 239.757 133.000 239.678 136.100 M159.309 135.200 C 159.309 136.190,159.387 136.595,159.482 136.100 C 159.578 135.605,159.578 134.795,159.482 134.300 C 159.387 133.805,159.309 134.210,159.309 135.200 M172.070 137.090 L 172.000 139.179 165.900 139.301 L 159.800 139.422 165.913 139.511 C 172.745 139.610,172.557 139.692,172.295 136.746 C 172.141 135.011,172.139 135.013,172.070 137.090 M162.700 143.900 C 183.435 143.957,217.365 143.957,238.100 143.900 C 258.835 143.843,241.870 143.796,200.400 143.796 C 158.930 143.796,141.965 143.843,162.700 143.900 M112.493 156.800 C 112.493 157.570,112.575 157.885,112.676 157.500 C 112.776 157.115,112.776 156.485,112.676 156.100 C 112.575 155.715,112.493 156.030,112.493 156.800 M285.653 185.645 C 284.835 187.765,282.546 189.281,278.600 190.315 C 274.779 191.316,273.731 191.576,272.600 191.803 C 271.940 191.935,270.590 192.222,269.600 192.440 C 268.610 192.658,266.990 193.000,266.000 193.200 C 264.209 193.561,261.944 194.053,258.700 194.783 C 257.765 194.993,256.010 195.369,254.800 195.618 C 252.329 196.126,250.102 196.601,247.300 197.218 C 246.255 197.448,244.590 197.800,243.600 198.000 C 242.610 198.200,240.990 198.544,240.000 198.764 C 239.010 198.985,237.300 199.352,236.200 199.580 C 235.100 199.808,233.480 200.155,232.600 200.349 C 231.720 200.544,229.650 200.999,228.000 201.360 C 222.948 202.465,220.306 203.211,222.200 202.997 C 223.080 202.898,224.610 202.623,225.600 202.386 C 227.883 201.841,230.500 201.264,232.800 200.800 C 233.790 200.600,235.455 200.248,236.500 200.018 C 237.545 199.788,239.255 199.412,240.300 199.182 C 241.345 198.952,243.010 198.600,244.000 198.400 C 245.720 198.053,247.293 197.713,251.500 196.778 C 252.545 196.546,254.030 196.264,254.800 196.153 C 255.570 196.042,256.560 195.793,257.000 195.600 C 257.440 195.407,258.430 195.158,259.200 195.047 C 259.970 194.936,261.500 194.646,262.600 194.404 C 263.700 194.162,265.410 193.800,266.400 193.600 C 268.675 193.141,273.657 192.047,277.000 191.273 C 282.438 190.014,287.713 186.380,286.241 184.907 C 286.121 184.787,285.856 185.119,285.653 185.645 M113.600 185.355 C 113.600 187.248,119.089 190.603,123.800 191.589 C 125.120 191.866,126.740 192.231,127.400 192.400 C 128.060 192.569,129.680 192.922,131.000 193.184 C 132.320 193.446,134.030 193.815,134.800 194.005 C 135.570 194.194,137.100 194.552,138.200 194.800 C 139.300 195.048,140.830 195.406,141.600 195.595 C 142.370 195.785,144.080 196.147,145.400 196.400 C 146.720 196.653,148.430 197.015,149.200 197.205 C 150.901 197.624,153.773 198.270,155.400 198.600 C 156.060 198.734,157.365 199.013,158.300 199.221 C 162.140 200.077,163.891 200.455,165.600 200.800 C 166.590 201.000,168.210 201.344,169.200 201.564 C 170.190 201.785,171.990 202.169,173.200 202.418 C 174.410 202.667,176.210 203.043,177.200 203.253 C 178.190 203.464,179.540 203.720,180.200 203.824 C 183.388 204.324,179.248 203.181,173.590 202.000 C 170.185 201.289,166.680 200.557,165.800 200.373 C 164.920 200.189,162.490 199.655,160.400 199.186 C 155.619 198.113,153.814 197.739,151.800 197.403 C 150.920 197.256,149.840 196.983,149.400 196.795 C 148.960 196.608,147.970 196.345,147.200 196.212 C 145.569 195.930,143.024 195.416,140.200 194.800 C 139.100 194.561,137.660 194.270,137.000 194.155 C 136.340 194.040,135.440 193.789,135.000 193.598 C 134.560 193.406,133.570 193.158,132.800 193.047 C 132.030 192.936,130.590 192.664,129.600 192.444 C 128.610 192.223,127.260 191.935,126.600 191.803 C 120.740 190.628,116.921 188.936,114.960 186.644 C 114.212 185.771,113.600 185.190,113.600 185.355 M284.988 192.585 C 283.451 193.994,280.485 195.600,279.423 195.600 C 279.101 195.600,278.424 195.760,277.919 195.955 C 277.413 196.150,276.010 196.519,274.800 196.775 C 273.590 197.030,271.790 197.423,270.800 197.648 C 268.872 198.085,266.991 198.501,263.800 199.197 C 262.700 199.436,260.810 199.896,259.600 200.218 C 257.165 200.866,258.991 200.713,262.200 200.000 C 263.300 199.756,264.830 199.464,265.600 199.353 C 266.370 199.242,267.360 198.994,267.800 198.802 C 268.240 198.611,269.230 198.345,270.000 198.212 C 272.328 197.809,274.900 197.275,276.800 196.800 C 277.790 196.553,279.097 196.251,279.705 196.129 C 280.313 196.007,280.908 195.749,281.029 195.554 C 281.149 195.359,281.563 195.200,281.948 195.200 C 282.334 195.200,283.000 194.885,283.428 194.500 C 283.857 194.115,284.887 193.215,285.718 192.500 C 286.548 191.785,287.064 191.200,286.864 191.200 C 286.664 191.200,285.820 191.823,284.988 192.585 M113.200 192.159 C 113.200 192.335,116.043 194.213,117.824 195.213 C 118.594 195.646,119.568 196.000,119.989 196.000 C 120.409 196.000,120.852 196.160,120.973 196.356 C 121.094 196.551,121.779 196.812,122.496 196.934 C 123.213 197.056,124.655 197.346,125.700 197.578 C 129.907 198.513,131.480 198.853,133.200 199.200 C 134.190 199.400,135.900 199.762,137.000 200.004 C 138.100 200.246,139.630 200.523,140.400 200.618 C 142.383 200.864,133.907 198.792,127.800 197.538 C 121.759 196.297,117.684 194.950,116.000 193.638 C 114.715 192.636,113.200 191.836,113.200 192.159 M286.990 223.200 C 286.990 240.030,287.040 246.915,287.100 238.500 C 287.160 230.085,287.160 216.315,287.100 207.900 C 287.040 199.485,286.990 206.370,286.990 223.200 M183.413 194.613 C 182.450 195.577,182.011 196.372,182.036 197.113 C 182.071 198.172,182.082 198.167,182.444 196.914 C 182.648 196.207,183.414 195.172,184.145 194.614 L 185.476 193.600 200.053 193.600 L 214.630 193.600 215.968 194.717 C 217.145 195.699,217.342 196.146,217.599 198.417 L 217.891 201.000 217.945 198.874 C 218.090 193.266,217.883 193.201,199.913 193.200 L 184.827 193.200 183.413 194.613 M187.781 199.305 C 187.672 199.589,187.632 203.507,187.691 208.011 L 187.800 216.200 200.000 216.200 L 212.200 216.200 212.200 207.600 L 212.200 199.000 200.090 198.894 C 190.485 198.810,187.938 198.895,187.781 199.305 M212.000 207.600 L 212.000 216.000 200.000 216.000 L 188.000 216.000 188.000 207.600 L 188.000 199.200 200.000 199.200 L 212.000 199.200 212.000 207.600 M142.400 201.200 C 142.730 201.413,143.450 201.578,144.000 201.566 C 144.916 201.546,144.933 201.515,144.200 201.200 C 143.016 200.691,141.613 200.691,142.400 201.200 M254.800 201.200 C 253.820 201.514,253.824 201.521,255.000 201.554 C 255.660 201.573,256.470 201.413,256.800 201.200 C 257.558 200.710,256.330 200.710,254.800 201.200 M145.800 202.000 C 146.240 202.189,147.140 202.338,147.800 202.332 C 148.970 202.321,148.975 202.312,148.000 202.000 C 146.533 201.530,144.706 201.530,145.800 202.000 M251.200 202.000 L 250.200 202.320 251.200 202.332 C 251.750 202.338,252.560 202.189,253.000 202.000 L 253.800 201.656 253.000 201.668 C 252.560 201.674,251.750 201.824,251.200 202.000 M217.734 202.796 C 217.807 203.899,218.988 204.378,219.742 203.609 C 220.089 203.256,219.942 203.207,219.132 203.407 C 218.234 203.629,218.034 203.522,217.867 202.735 C 217.678 201.843,217.672 201.846,217.734 202.796 M149.800 202.800 C 150.240 202.989,150.960 203.144,151.400 203.144 L 152.200 203.144 151.400 202.800 C 150.960 202.611,150.240 202.456,149.800 202.456 L 149.000 202.456 149.800 202.800 M247.200 202.800 C 246.225 203.112,246.230 203.121,247.400 203.132 C 248.060 203.138,248.960 202.989,249.400 202.800 C 250.494 202.330,248.667 202.330,247.200 202.800 M153.400 203.600 C 153.840 203.789,154.650 203.944,155.200 203.944 C 156.112 203.944,156.129 203.913,155.400 203.600 C 154.960 203.411,154.150 203.256,153.600 203.256 C 152.688 203.256,152.671 203.287,153.400 203.600 M243.800 203.600 C 243.067 203.915,243.084 203.946,244.000 203.966 C 244.550 203.978,245.270 203.813,245.600 203.600 C 246.387 203.091,244.984 203.091,243.800 203.600 M156.460 204.194 C 156.789 204.522,162.849 205.684,163.072 205.461 C 163.187 205.346,162.588 205.136,161.741 204.995 C 160.893 204.854,159.678 204.572,159.040 204.369 C 157.817 203.980,156.132 203.865,156.460 204.194 M240.360 204.174 C 240.209 204.325,236.176 205.253,230.500 206.443 C 229.565 206.640,227.945 206.980,226.900 207.200 C 225.855 207.420,224.100 207.772,223.000 207.983 C 221.900 208.193,220.280 208.511,219.400 208.688 L 217.800 209.011 217.581 213.006 C 217.110 221.566,217.044 221.599,199.880 221.599 C 185.652 221.600,185.372 221.561,183.635 219.354 C 183.176 218.770,182.800 218.505,182.800 218.764 C 182.800 219.312,184.254 220.776,185.517 221.500 C 187.251 222.494,213.089 222.185,214.800 221.150 C 217.171 219.716,217.986 217.583,217.994 212.784 L 218.000 209.368 222.100 208.628 C 224.355 208.222,227.100 207.671,228.200 207.404 C 229.300 207.138,231.640 206.616,233.400 206.246 C 240.305 204.791,242.994 204.082,241.767 204.041 C 241.088 204.018,240.455 204.078,240.360 204.174 M163.600 205.713 C 163.710 205.832,165.240 206.236,167.000 206.612 C 171.249 207.519,173.506 208.011,175.200 208.401 C 175.970 208.578,177.680 208.932,179.000 209.188 C 180.320 209.444,181.625 209.946,181.900 210.303 C 182.175 210.660,182.400 210.761,182.400 210.525 C 182.400 209.753,181.166 209.053,179.268 208.749 C 178.240 208.585,176.590 208.249,175.600 208.003 C 173.562 207.497,171.671 207.087,168.200 206.397 C 164.282 205.619,163.389 205.486,163.600 205.713 M182.000 215.310 C 182.000 216.543,182.167 217.656,182.372 217.783 C 182.594 217.920,182.652 217.084,182.517 215.706 C 182.219 212.682,182.000 212.514,182.000 215.310 M282.575 262.500 L 281.400 263.800 282.700 262.625 C 283.415 261.979,284.000 261.394,284.000 261.325 C 284.000 261.016,283.670 261.288,282.575 262.500 M118.000 263.346 C 118.000 263.456,118.540 263.930,119.200 264.400 C 119.860 264.870,120.400 265.164,120.400 265.054 C 120.400 264.944,119.860 264.470,119.200 264.000 C 118.540 263.530,118.000 263.236,118.000 263.346 M230.500 285.876 C 230.885 285.976,231.515 285.976,231.900 285.876 C 232.285 285.775,231.970 285.693,231.200 285.693 C 230.430 285.693,230.115 285.775,230.500 285.876 M210.577 299.000 C 210.577 305.600,210.632 308.356,210.699 305.125 C 210.766 301.893,210.766 296.493,210.699 293.125 C 210.632 289.756,210.577 292.400,210.577 299.000 M298.772 288.283 C 299.835 288.391,300.404 288.665,300.514 289.122 C 300.630 289.600,300.667 289.564,300.639 289.000 C 300.607 288.338,300.306 288.193,298.897 288.161 L 297.194 288.122 298.772 288.283 M291.759 289.362 C 291.641 289.671,291.618 290.526,291.708 291.262 C 291.858 292.489,291.877 292.461,291.936 290.928 C 291.989 289.537,292.151 289.226,292.900 289.082 L 293.800 288.909 292.887 288.854 C 292.386 288.825,291.878 289.053,291.759 289.362 M62.000 292.200 C 61.028 293.190,60.323 294.000,60.433 294.000 C 60.543 294.000,61.428 293.190,62.400 292.200 C 63.372 291.210,64.077 290.400,63.967 290.400 C 63.857 290.400,62.972 291.210,62.000 292.200 M244.934 300.000 C 244.934 301.650,245.005 302.325,245.091 301.500 C 245.178 300.675,245.178 299.325,245.091 298.500 C 245.005 297.675,244.934 298.350,244.934 300.000 M266.100 297.876 C 266.485 297.976,267.115 297.976,267.500 297.876 C 267.885 297.775,267.570 297.693,266.800 297.693 C 266.030 297.693,265.715 297.775,266.100 297.876 M329.107 297.890 C 329.826 297.979,330.906 297.977,331.507 297.886 C 332.108 297.795,331.520 297.722,330.200 297.724 C 328.880 297.726,328.388 297.801,329.107 297.890 M142.183 298.900 C 142.078 299.175,142.040 307.500,142.100 317.400 L 142.208 335.400 142.304 317.116 L 142.400 298.831 145.900 298.698 L 149.400 298.565 145.887 298.482 C 143.383 298.424,142.320 298.543,142.183 298.900 M288.700 298.682 C 289.195 298.778,290.005 298.778,290.500 298.682 C 290.995 298.587,290.590 298.509,289.600 298.509 C 288.610 298.509,288.205 298.587,288.700 298.682 M303.516 298.697 C 304.899 298.775,307.059 298.774,308.316 298.695 C 309.572 298.616,308.440 298.552,305.800 298.553 C 303.160 298.553,302.132 298.618,303.516 298.697 M310.878 301.688 L 310.800 304.776 305.700 304.901 L 300.600 305.026 305.713 305.113 C 311.593 305.213,311.305 305.414,311.098 301.360 L 310.957 298.600 310.878 301.688 M286.920 301.600 C 286.920 302.810,286.995 303.305,287.087 302.700 C 287.178 302.095,287.178 301.105,287.087 300.500 C 286.995 299.895,286.920 300.390,286.920 301.600 M286.901 304.400 C 287.018 304.833,287.667 305.011,289.231 305.040 L 291.400 305.080 289.408 304.914 C 288.312 304.823,287.263 304.535,287.077 304.274 C 286.842 303.945,286.788 303.983,286.901 304.400 M328.905 304.287 C 329.514 304.379,330.414 304.377,330.905 304.282 C 331.397 304.187,330.900 304.111,329.800 304.114 C 328.700 304.117,328.297 304.195,328.905 304.287 M116.707 305.090 C 117.426 305.179,118.506 305.177,119.107 305.086 C 119.708 304.995,119.120 304.922,117.800 304.924 C 116.480 304.926,115.988 305.001,116.707 305.090 M184.307 305.090 C 185.026 305.179,186.106 305.177,186.707 305.086 C 187.308 304.995,186.720 304.922,185.400 304.924 C 184.080 304.926,183.588 305.001,184.307 305.090 M263.891 305.089 C 264.601 305.177,265.861 305.179,266.691 305.092 C 267.521 305.005,266.940 304.933,265.400 304.931 C 263.860 304.929,263.181 305.000,263.891 305.089 M233.775 306.500 L 232.600 307.800 233.900 306.625 C 234.615 305.979,235.200 305.394,235.200 305.325 C 235.200 305.016,234.870 305.288,233.775 306.500 M291.720 309.600 C 291.720 310.810,291.795 311.305,291.887 310.700 C 291.978 310.095,291.978 309.105,291.887 308.500 C 291.795 307.895,291.720 308.390,291.720 309.600 M227.105 308.683 C 227.602 308.779,228.322 308.775,228.705 308.675 C 229.087 308.575,228.680 308.496,227.800 308.501 C 226.920 308.505,226.607 308.587,227.105 308.683 M282.544 314.800 C 282.544 316.890,282.612 317.745,282.694 316.700 C 282.776 315.655,282.776 313.945,282.694 312.900 C 282.612 311.855,282.544 312.710,282.544 314.800 M210.577 323.400 C 210.577 330.000,210.632 332.756,210.699 329.525 C 210.766 326.293,210.766 320.893,210.699 317.525 C 210.632 314.156,210.577 316.800,210.577 323.400 M266.716 312.697 C 268.099 312.775,270.259 312.774,271.516 312.695 C 272.772 312.616,271.640 312.552,269.000 312.553 C 266.360 312.553,265.332 312.618,266.716 312.697 M326.700 313.498 C 328.735 313.571,332.065 313.571,334.100 313.498 C 336.135 313.425,334.470 313.366,330.400 313.366 C 326.330 313.366,324.665 313.425,326.700 313.498 M346.509 314.800 C 346.509 315.790,346.587 316.195,346.682 315.700 C 346.778 315.205,346.778 314.395,346.682 313.900 C 346.587 313.405,346.509 313.810,346.509 314.800 M127.331 317.000 C 127.333 318.540,127.405 319.121,127.492 318.291 C 127.579 317.461,127.577 316.201,127.489 315.491 C 127.400 314.781,127.329 315.460,127.331 317.000 M136.509 316.000 C 136.509 316.990,136.587 317.395,136.682 316.900 C 136.778 316.405,136.778 315.595,136.682 315.100 C 136.587 314.605,136.509 315.010,136.509 316.000 M312.901 316.600 C 312.905 317.480,312.987 317.793,313.083 317.295 C 313.179 316.798,313.175 316.078,313.075 315.695 C 312.975 315.313,312.896 315.720,312.901 316.600 M150.799 325.881 C 150.690 331.205,150.738 335.423,150.908 335.253 C 151.077 335.084,151.166 330.727,151.107 325.572 L 150.999 316.200 150.799 325.881 M268.200 318.253 C 271.065 318.550,274.311 318.576,274.139 318.300 C 274.037 318.135,272.388 318.029,270.476 318.064 C 268.564 318.099,267.540 318.184,268.200 318.253 M328.500 319.099 C 331.745 319.166,337.055 319.166,340.300 319.099 C 343.545 319.032,340.890 318.977,334.400 318.977 C 327.910 318.977,325.255 319.032,328.500 319.099 M261.970 320.700 L 261.000 321.800 262.200 320.800 C 262.860 320.250,263.475 319.755,263.567 319.700 C 263.658 319.645,263.555 319.600,263.336 319.600 C 263.118 319.600,262.503 320.095,261.970 320.700 M136.093 321.200 C 136.093 321.970,136.175 322.285,136.276 321.900 C 136.376 321.515,136.376 320.885,136.276 320.500 C 136.175 320.115,136.093 320.430,136.093 321.200 M93.783 324.427 C 93.585 324.747,93.641 324.822,93.938 324.638 C 94.276 324.429,94.423 325.723,94.486 329.476 L 94.573 334.600 94.699 329.633 C 94.818 324.978,94.513 323.246,93.783 324.427 M123.578 326.700 L 122.200 328.200 123.700 326.822 C 125.096 325.538,125.384 325.200,125.078 325.200 C 125.012 325.200,124.337 325.875,123.578 326.700 M60.400 328.125 C 60.400 328.194,60.985 328.779,61.700 329.425 L 63.000 330.600 61.825 329.300 C 60.730 328.088,60.400 327.816,60.400 328.125 M80.707 328.290 C 81.426 328.379,82.506 328.377,83.107 328.286 C 83.708 328.195,83.120 328.122,81.800 328.124 C 80.480 328.126,79.988 328.201,80.707 328.290 M116.700 329.082 C 117.195 329.178,118.005 329.178,118.500 329.082 C 118.995 328.987,118.590 328.909,117.600 328.909 C 116.610 328.909,116.205 328.987,116.700 329.082 M265.300 329.076 C 265.685 329.176,266.315 329.176,266.700 329.076 C 267.085 328.975,266.770 328.893,266.000 328.893 C 265.230 328.893,264.915 328.975,265.300 329.076 M331.300 329.094 C 332.345 329.176,334.055 329.176,335.100 329.094 C 336.145 329.012,335.290 328.944,333.200 328.944 C 331.110 328.944,330.255 329.012,331.300 329.094 M79.100 336.296 C 80.475 336.374,82.725 336.374,84.100 336.296 C 85.475 336.218,84.350 336.154,81.600 336.154 C 78.850 336.154,77.725 336.218,79.100 336.296 M115.712 336.295 C 116.764 336.377,118.384 336.376,119.312 336.292 C 120.240 336.208,119.380 336.141,117.400 336.142 C 115.420 336.143,114.660 336.212,115.712 336.295 " stroke="none" fill="#7c7454" fill-rule="evenodd"></path></g></svg>